<?xml version="1.0" encoding="utf-8"?>
<!-- Generator: Adobe Illustrator 26.4.1, SVG Export Plug-In . SVG Version: 6.00 Build 0)  -->
<svg version="1.1" id="레이어_1" xmlns="http://www.w3.org/2000/svg" xmlns:xlink="http://www.w3.org/1999/xlink" x="0px"
	 y="0px" viewBox="0 0 500 130.09" style="enable-background:new 0 0 500 130.09;" xml:space="preserve">
<style type="text/css">
	.st0{fill:#FFFFFF;}
</style>
<g>
	<path class="st0" d="M142.42,16.72c0.23-0.01,0.24,0.29,0.45,0.34c0.46-0.17,0.45,0.57,0.9,0.23c0.15,0.19,0.13,0.54,0.45,0.56
		c0.43-0.13,0.91-0.01,1.3,0.12c0.03,0.35,0.43,0.31,0.61,0.56c0.31,0.5,0.6,1,1.18,1.19c0.49,0.05,1.18-0.16,1.36,0.39
		c0.37,0.24,0.51,0.69,0.67,1.07c-0.06,0.03-0.05,0.1-0.05,0.17c0.14,0.06,0.34,0.07,0.34,0.28c0.08,0.32-0.44,0.72,0.06,0.9
		c0,0.67-1.04,1.23-0.34,1.86c0.07,0.18-0.17,0.34,0.12,0.4l0.05-0.06c0.35,0.09,0.2,0.48,0.39,0.62l-0.28,0.16
		c0.21,0.15,0.09,0.42,0.28,0.57c-0.04,0.12-0.17,0.28-0.05,0.39c-0.15,0.3-0.43-0.08-0.51,0.28c-0.14-0.01-0.24-0.3-0.4-0.12
		c0.02,0.12,0.21,0.23,0.06,0.34c-0.11-0.03-0.19-0.16-0.33-0.11l-0.06,0.06c-0.06-0.11-0.19-0.03-0.28-0.06
		c-0.1,0.36-0.5,0.24-0.68,0.51c-0.23,0.03-0.37,0.3-0.62,0.28c0.08,0.42-0.71,0.38-0.34,0.84c-0.4,0.4-1.42-0.39-1.46,0.56
		c-0.27,0.2-0.53,0.56-0.9,0.34c-0.18,0.06-0.43-0.01-0.56,0.17c-0.19-0.14-0.38,0.24-0.56,0.11c-0.49,0.43-1.39,0.61-2.03,0.28
		c-0.16-0.34-0.71-0.02-0.96-0.28c-0.59-0.25-1.27,0.27-1.74-0.23c-0.56,0.18-0.77-0.66-1.35-0.28c-0.52,0.06-0.86,0.53-1.41,0.5
		c-0.16,0.13-0.35,0.46-0.67,0.34c-0.28-0.25-0.39-0.76-0.9-0.56c-0.22-0.16-0.56-0.19-0.67-0.5l0.17-0.17
		c-0.26-0.14-0.19-0.42-0.29-0.62c0.07,0,0.14,0.02,0.17-0.05c0.02-0.08-0.08-0.11-0.12-0.18c-0.31,0.1-0.22-0.25-0.33-0.39
		c-0.22-0.27-0.28-0.67-0.17-1.01c0.15-0.37,0.48-0.67,0.45-1.12c-0.43-0.46-0.29-1.15-0.67-1.63c-0.13-0.78,0.72-1.11,1.12-1.58
		c0.59-0.25,1.2-0.4,1.75-0.73c0.16-0.21,0.14-0.48,0.22-0.73c0.25-0.34,0.31-0.84,0.73-1.01c0.65-0.74,1.94-0.53,2.31-1.69
		c0.29-0.43,0.79-0.82,1.29-0.96c0.02-0.24,0.29-0.37,0.5-0.39l0.11,0.17c0.2-0.11,0.28-0.32,0.51-0.4
		C141.54,16.59,142.16,16.31,142.42,16.72z"/>
	<path class="st0" d="M178.04,46.61c0.45,0.15,0.58,0.76,1.06,1.01c0.18,0.3,0.03,0.87,0.53,0.9h0.1c0.46,0.45,1.01,0.95,1.27,1.53
		c0.41,0.67,0.88,1.32,0.9,2.17c0.24,0.6,0.02,1.4-0.21,2.01c-0.39,0.65-1.23,0.44-1.85,0.62c-0.32-0.17-0.72-0.13-1.01-0.37
		c-0.48,0.02-0.83-0.58-1.32-0.21c-0.33,0.28-0.72,0.38-1.05,0.64c-0.18-0.09-0.23,0.14-0.37,0.15c-0.04,0.27-0.42,0.13-0.59,0.32
		c-0.72,0.96-2.15,0.59-3.17,0.52c-0.28-0.21-0.6-0.32-0.9-0.47c-0.67-0.01-0.43-0.77-0.9-1.05c0.06-0.13-0.1-0.18-0.16-0.27
		c-0.12-0.8-0.37-1.55-0.42-2.38c-0.31-0.29-0.06-0.81-0.21-1.16c0.2-1.68,1.48-3.08,2.96-3.91c0.52,0,0.97-0.18,1.42-0.32
		C175.5,46.28,176.78,46.45,178.04,46.61z"/>
	<path class="st0" d="M98,45.17c0.24-0.11,0.46,0.05,0.73,0c0.11,0.27,0.33-0.07,0.47,0.14c0.47,0.16,1.03,0.26,1.31,0.72
		c0.14,0.15,0.39,0.14,0.47,0.36c0.15,0.3,0.35,0.49,0.5,0.79l0.04-0.03c0.24,0.17,0.23,0.52,0.51,0.62
		c-0.03,0.12,0.05,0.19,0.07,0.29l0.07-0.07c0.15,0.07,0.02,0.24,0.11,0.32c0.14,0,0.2,0.18,0.33,0.22
		c-0.06,0.38,0.25,0.64,0.18,0.98c0.32,0.32,0.28,0.8,0.43,1.19c-0.05,0.22-0.11,0.35-0.03,0.58c-0.14,0.24-0.41,0.43-0.73,0.4
		c-0.33,0.43-0.82,0.64-1.19,1.01v0.07l-0.83,0.44c-0.48,0.03-1.05-0.25-1.45,0.11c-0.25-0.11-0.48,0.07-0.69-0.15
		c-0.23-0.11-0.36,0.22-0.54,0c-0.34,0.29-0.77-0.07-1.16-0.11c-0.39-0.04-0.84,0.07-1.23,0.04c-0.24,0.08-0.51,0.13-0.8,0.11
		l-0.11,0.15c-0.07-0.1-0.2-0.19-0.36-0.15c-0.07,0.13-0.21,0.23-0.33,0.29c-0.14-0.07-0.27-0.27-0.44-0.14
		c-0.2-0.05-0.19,0.21-0.4,0.18c-0.08-0.19-0.27-0.24-0.36-0.43c-0.28-0.39-0.27-0.91-0.62-1.27c-0.06-0.46-0.33-0.88-0.26-1.34
		c0.06,0.02,0.08-0.05,0.11-0.07c-0.13-0.05-0.02-0.14,0-0.21c0.04,0,0.09-0.01,0.11,0.03l0.11-0.11c-0.18-0.16,0.22-0.3,0.04-0.51
		c0.15-0.24,0.27-0.51,0.32-0.8c0.09-0.41,0.5-0.68,0.8-1.02c0.35-0.1,0.6-0.33,0.8-0.65c0.22-0.85,1.08-1.47,1.85-1.78
		c0.39-0.08,0.86,0.17,1.23-0.07l-0.04-0.04c0.17-0.11,0.46,0.07,0.58-0.15C97.73,45.25,97.87,45.04,98,45.17z"/>
	<path class="st0" d="M106.61,51.89h0.32c0.48,0.28,0.7,0.96,1.27,1.01c0.38,0.27,0.41,0.78,0.87,1.01c0.35-0.01,0.6-0.13,0.91-0.04
		c0.55-0.01,0.78,0.54,1.08,0.91c-0.09,0.11,0.02,0.23,0.07,0.32c-0.04,0.22,0.09,0.51-0.11,0.65c0.16,0.18,0,0.35,0.11,0.54
		c0.09,0.28-0.1,0.55,0.07,0.8c-0.12,0.13,0.08,0.22,0.04,0.36c-0.04,0.51,0,1.06-0.51,1.38c0.04,0.1-0.08,0.13-0.11,0.18
		c-0.23-0.03-0.33,0.24-0.54,0.25c-0.78,0.63-1.72,0.88-2.75,0.91c-0.16,0.02-0.38-0.02-0.54-0.11l-0.26,0.04v-0.07
		c0.08,0.01,0.14-0.01,0.18-0.07c-0.12-0.06-0.24-0.23-0.36-0.18l0.11,0.18c-0.09,0.07-0.25-0.14-0.32,0c-0.1-0.08-0.27,0-0.36-0.08
		c0.14-0.04,0.01-0.16,0-0.25c-0.15-0.04-0.1,0.19-0.26,0.15l-0.11-0.11c-0.51-0.1-1.01,0.02-1.52,0.03
		c-0.15-0.03-0.27-0.23-0.4-0.18c0,0.04-0.01,0.09,0.04,0.11h0.07v0.04c-0.08-0.01-0.17,0.02-0.22-0.08
		c-0.23-0.02-0.5,0.06-0.69-0.07c0.07-0.06,0.02-0.17,0.03-0.25l-0.07-0.07c-0.05,0.15-0.02,0.41-0.26,0.43
		c0.05-0.22-0.36-0.14-0.18-0.36c0.05,0.02,0.11,0.02,0.15,0.07c0.07-0.02,0.02-0.09,0.03-0.14c-0.11-0.13-0.23,0.09-0.32-0.08
		L102,59.21l-0.07-0.15c-0.04,0.02-0.04,0.07-0.04,0.11c-0.04-0.09-0.14-0.07-0.22-0.08l-0.04,0.04c-0.06-0.1-0.17-0.09-0.18-0.21
		c-0.02,0.04-0.09,0.05-0.08,0.11c-0.28-0.18-0.19-0.53-0.36-0.76c-0.17-0.1-0.1-0.41-0.37-0.44c-0.16-0.05,0.05-0.4-0.18-0.29v0.07
		c-0.34-0.19-0.25-0.68-0.22-1.01c0.05-0.04,0.05-0.11,0.11-0.15c-0.09-0.22,0.15-0.39,0.22-0.58c0.24-0.23,0.58-0.3,0.76-0.58
		c0.31-0.06,0.28-0.45,0.47-0.65c0-0.27,0.35-0.4,0.33-0.69c0.31-0.42,0.79-0.9,1.23-1.23c0.05-0.16,0.17-0.16,0.29-0.25
		c0.25-0.25,0.57-0.38,0.8-0.58c0.32,0.01,0.56-0.16,0.83-0.26C105.73,51.72,106.26,51.58,106.61,51.89z"/>
	<path class="st0" d="M163.62,27.06c0.33,0.29,0.81,0.34,1.07,0.68l-0.06,0.06c0.06,0.13,0.15-0.02,0.22,0
		c0.43,0.42,0.71,0.89,0.9,1.41c0.17,0.24,0.45,0.51,0.33,0.79c0.05,0.17,0.1,0.35,0.23,0.5c-0.02,0.34-0.2,0.67-0.05,1.01
		l-0.17,0.12c0.25,0.15,0.34,0.47,0.45,0.73c0.02,0.18-0.02,0.23-0.17,0.28c-0.28-0.09-0.27,0.28-0.45,0.34
		c0.09,0.09,0.22,0.26,0.34,0.11c0.2-0.03,0.05-0.39,0.34-0.34c0.16,0.02,0.18,0.2,0.17,0.34c-0.18,0.06-0.06,0.26-0.17,0.34
		c-0.13-0.12-0.24-0.29-0.46-0.22c-0.03,0.03-0.07,0.06-0.05,0.11c0.15,0.04,0.25,0.14,0.28,0.29c-0.1,0.07-0.13,0.17-0.11,0.28
		c-0.05,0.02-0.08-0.03-0.12-0.06c-0.03,0.03-0.07,0.06-0.05,0.11l0.28,0.12c-0.29,0.2,0.15,0.79-0.4,0.95
		c0,0.08,0.09,0.13,0.06,0.23c-0.26,0.24-0.75,0.29-0.79,0.73c-0.08,0.49-0.73-0.04-0.79,0.51c-0.42,0.13-0.84,0.25-1.18,0.56
		c-0.24,0-0.41,0.19-0.62,0.28c-1.04,0.25-2.11,0.42-3.21,0.5c-0.28,0.06-0.47-0.24-0.73-0.05c-0.21,0-0.56,0.02-0.79-0.11
		c-0.61-0.39-1.25-0.19-1.91-0.45c-0.62-0.09-1.35-0.11-1.86,0.22c0.03,0.32-0.25,0.42-0.4,0.62c-0.88,0.19-1.68-0.24-2.25-0.84
		c-0.36,0.11-0.78,0.05-1.07-0.17c-0.26,0.12-0.51-0.11-0.79-0.11c-0.17-0.15-0.42-0.22-0.51-0.45l0.06-0.68l-0.45-0.51
		c0.41-0.75-0.54-1.3-0.11-1.91c0.34-0.47,0.87-0.71,1.4-0.79c0.05-0.13,0.11-0.37-0.11-0.39c-0.15-0.15,0.03-0.3,0.05-0.45
		c0.37-0.33,0.92-0.68,0.85-1.24c0.86-0.95,1.76-2.12,2.93-2.7c0.15-0.26,0.42-0.24,0.62-0.4c0.36-0.45,0.5-1.03,1.07-1.35
		c0.48-0.41,1.27-0.4,1.85-0.23l2.59-0.11l0.62-0.5C161.78,25.4,162.4,26.79,163.62,27.06z"/>
	<path class="st0" d="M86.79,49.99c0.13,0.03,0.2-0.07,0.33-0.03l0.07,0.11c0.14-0.17,0.34,0,0.51,0c0.03,0.08,0.06,0.16,0.14,0.22
		c0.04,0,0.09,0.01,0.11-0.04C88,50.29,88,50.4,88.1,50.36c0.1-0.28,0.2,0.07,0.36,0c0.35,0.61,0.97,0.52,1.41,0.9
		c0.14,0.12,0.28,0.22,0.47,0.22l0.4,0.36c0.07-0.05,0.19-0.05,0.26,0c0.12,0.32,0.54,0.38,0.65,0.76h0.07
		c0,0.04,0.01,0.08-0.04,0.11c0.03,0.04,0.07,0.03,0.11,0.03l0.11-0.1c0.09,0.06,0.14,0.19,0.22,0.29
		c-0.19,0.09,0.08,0.24-0.11,0.33c0.11,0.1,0.51-0.34,0.36,0.07c0.04,0.12,0.04,0.24,0,0.36c0.24,0.08-0.05,0.24,0.15,0.33
		l0.03-0.03c0.16,0.11,0.11,0.48,0.32,0.4c0.05,0.04,0.04,0.12,0.11,0.15l-0.14,0.07c0.03,0.19,0.37,0.3,0.25,0.5
		c0.08,0.07,0.3,0.27,0.08,0.37c0.03,0.11,0.14,0.25-0.04,0.33l-0.04-0.04c-0.11,0.09-0.06,0.28-0.25,0.26l0.03,0.03
		c-0.11,0.05-0.27-0.11-0.4,0l0.07,0.07c-0.11,0.18-0.44,0.2-0.36,0.5c0,0.11-0.27,0.19-0.07,0.29c0.02-0.02,0.04-0.05,0.07-0.04
		l0.04,0.04l-0.18,0.18c0.05,0.1,0.18,0.07,0.18,0.19c-0.03,0.07-0.16,0-0.14,0.11c0.03,0.07,0.1,0.02,0.14,0.03
		c-0.04,0.15-0.33,0.15-0.22,0.33c0.02-0.02,0.04-0.05,0.07-0.04c0.14,0.12-0.02,0.28-0.07,0.4c-0.11-0.02-0.04,0.11-0.11,0.14
		c-0.4,0.63-1.13,1-1.84,0.98c-0.21,0.08-0.48,0-0.69,0.07l-0.04-0.04c-0.41,0.24-1,0.07-1.41,0.33c-0.45,0.25-0.85-0.36-1.2,0.11
		c-0.14,0.11-0.37-0.01-0.47,0.18c-0.58,0.02-1.07,0.26-1.56,0.51c-0.19-0.01-0.46,0.2-0.58-0.04l-0.07,0.11h-0.91
		c-0.18-0.1-0.34-0.25-0.54-0.29c-0.02-0.03,0.02-0.05,0.04-0.07c-0.32-0.23-0.72-0.42-0.8-0.84c-0.17-0.19-0.38,0.06-0.58-0.07
		C81.11,59.18,81,59.28,81,59.42c-0.07-0.12-0.16,0.09-0.22-0.07c0.05-0.21,0.23-0.4,0-0.58c-0.35,0.14-0.66-0.09-0.87-0.32
		c0.23-0.18-0.17-0.38,0.11-0.54c-0.05-0.21,0.28-0.39,0-0.55c0.1-0.17-0.02-0.42-0.07-0.62c-0.02-0.42,0.66-0.11,0.57-0.61
		c0.22-0.1-0.05-0.34-0.07-0.51c0.05-0.48,0.15-0.94,0.39-1.34c-0.12-0.34,0.36-0.34,0.29-0.66l0.08-0.07
		c0.02-0.58,0.58-1.01,0.98-1.38c0.08-0.16,0.3-0.3,0.47-0.4c0.14-0.24,0.32-0.61,0.65-0.61c0.17-0.1,0.15-0.27,0.26-0.4
		c0.25-0.11,0.57-0.05,0.76-0.33c0.34-0.01,0.71-0.24,1.01,0c0.37-0.15,0.7-0.43,1.12-0.47C86.57,50.18,86.67,49.84,86.79,49.99z"/>
	<path class="st0" d="M128.45,26.36c0.21,0,0.37,0.12,0.56,0.17c0.15-0.16,0.29,0.2,0.46,0l-0.06,0.06
		c0.04,0.03,0.07,0.08,0.12,0.06c0.05-0.11,0.16,0.02,0.22,0.06c0.39,0.1,0.75-0.22,1.07,0.06c0.56,0.87,1.63,1.41,1.69,2.59
		c0.39,0.43,0.47,1,0.79,1.46c0.09,0.49,0.51,0.83,0.51,1.36c0.44,0.79,0.73,1.65,0.84,2.58c0.02,0.2-0.07,0.44,0.11,0.57
		c-0.14,0.16,0.05,0.44-0.17,0.56c0.22,0.26-0.16,0.42-0.11,0.68c-0.26,0.69-1.31,0.61-1.07,1.52c-0.08,0.54-0.23,1.09-0.73,1.4
		c-0.76,0-1.26,0.66-2.09,0.5c-1.4,0.15-2.45,1.13-3.88,1.24l-0.57,0.23l-3.82,0.17c-0.24-0.09-0.51-0.12-0.79-0.11
		c-0.32-0.24-0.59-0.5-0.79-0.79c-0.14,0.19-0.2-0.13-0.34-0.11c-0.84,0.33-1.41-0.34-2.14-0.45c-0.36-0.44-0.33-1.1-0.9-1.41
		c-0.08-0.29-0.42-0.48-0.62-0.73c0.06-0.68-0.84-0.96-0.67-1.69c-0.43-0.63,0.07-1.3,0.17-1.92c0.71-0.38,0.44-1.17,0.96-1.63
		c0.34-0.51,0.85-0.93,1.01-1.52c0.03-0.16,0.37-0.11,0.17-0.28l0.34-0.11l-0.17-0.28c0.09,0.14,0.19-0.04,0.28-0.06v-0.17
		c0.08-0.01,0.18,0.05,0.22-0.05c-0.11-0.13-0.03-0.31,0-0.45c0.12-0.08,0.26-0.09,0.34-0.23c0.26,0.08,0.55-0.27,0.73-0.45
		c0.48-0.03,0.56-0.68,0.96-0.9c-0.04-0.11,0.04-0.16,0.11-0.22c0.17-0.09,0.26,0.17,0.39,0c-0.13-0.07,0.01-0.15,0-0.23
		c0.43-0.06,0.22-0.74,0.68-0.56c0.16-0.08,0.12-0.35,0.33-0.45l0.12,0.12c-0.05-0.36,0.37-0.08,0.45-0.4
		c0.32-0.13,0.59-0.55,0.96-0.4c0.6-0.15,1.2,0.03,1.8,0.06c0.17-0.24,0.58,0.04,0.73-0.28C127.25,26.07,128.03,25.8,128.45,26.36z"
		/>
	<path class="st0" d="M86.05,54.73c-0.06-0.07-0.21-0.03-0.22-0.14C85.92,54.58,86.02,54.66,86.05,54.73z"/>
	<path class="st0" d="M188.36,58.06c0.29-0.05,0.44,0.34,0.73,0.12c0.16,0.2,0.48,0.07,0.61,0.35c0.1-0.16,0.36-0.03,0.51,0.01
		c0.11,0.17,0.41,0.16,0.61,0.24c0.84,0.23,1.56,0.71,2.4,0.95c0.97,0.57,1.81,1.11,2.72,1.8c0.09,0.08,0.27,0.07,0.28,0.23
		c0.73,0.28,1.29,1.07,1.88,1.56c0.06,0.27,0.42,0.38,0.44,0.68c0.62,0.49,0.56,1.29,1.09,1.77l-0.06,0.05
		c0.34,0.29,0.38,0.71,0.65,1.02c-0.02,0.22,0.24,0.52,0.38,0.69c0.02,0.05-0.03,0.07-0.06,0.11c0.39,0.1,0.19,0.53,0.55,0.69
		c0.05,0.35,0.34,0.45,0.38,0.8c0.06,0.09,0.23,0.14,0.17,0.29l-0.11,0.1c0.27,0.17,0.73-0.04,0.78,0.47
		c-0.07,0.06-0.15,0.12-0.12,0.22c0.31-0.04,0.36,0.28,0.56,0.41c-0.1,0.27,0.24,0.24,0.33,0.45c-0.07,0.46,0.29,0.76,0.31,1.19
		l0.06,0.01c-0.32,0.23,0.37,0.36-0.01,0.56c0.06,0.08,0.16,0.08,0.22,0.18c-0.21,0.22,0.16,0.49-0.13,0.67
		c0.22,0.32,0.39,0.65,0.31,1.08c0.22,0.19,0.02,0.56,0.15,0.79c-0.33,0.49,0.08,0.98,0.14,1.47c0.14,0.51-0.08,0.93,0.14,1.41
		l-0.11,0.11c0.18,0.1,0.12,0.26,0.1,0.46c-0.05,0.71,0.23,1.27,0.35,1.92c-0.11,0.07-0.04,0.22-0.06,0.33l0.16,0.12
		c0.52,2.7,0.83,3.12,1.35,5.82c-0.11,0.1-0.18,0.37,0.05,0.4c-0.05,0.19-0.3,0-0.29,0.22c0.08,0.12,0.28,0,0.33,0.18l-0.29,0.1
		c0.22,0.13,0.26,0.42,0.38,0.63c-0.41,0.24,0.09,0.75-0.24,0.95c0.2,0.22,0.11,0.53,0.21,0.79l-0.06,0.05
		c-0.11,1.08,0.38,2.15-0.06,3.15c0.28,0.51-0.29,0.79-0.19,1.29c-0.27,0.23-0.05,0.79-0.52,0.83c-0.08,0.27-0.39,0.43-0.41,0.72
		c-0.37,0.2-0.68,0.53-1.08,0.6c-0.2,0.22-0.5,0.21-0.69,0.49c-0.43-0.08-0.56,0.32-0.75,0.61c-0.36,0.33-0.97,0.26-1.14,0.82
		c-0.46-0.32-1.15-0.31-1.62-0.71c-0.36,0.09-0.28-0.48-0.67-0.35c0.15-0.47-0.4-0.64-0.66-0.86c-0.3,0.16-0.37,0.6-0.58,0.89
		c-0.01,0.18,0.02,0.38-0.13,0.51c-0.21,0-0.14-0.62-0.38-0.24l0.06,0.06c-0.19-0.11-0.27-0.48-0.56-0.35
		c-0.22-0.09,0.02-0.69-0.39-0.4c-0.23-0.73-0.06-1.64-0.57-2.26c0.07-0.68-0.36-1.5,0.21-2.02c-0.29-0.44-0.92-0.3-1.22-0.82
		c-0.09-0.23-0.06-0.5-0.27-0.68c0-0.32,0.01-0.72,0.02-0.96c0.12-0.12,0.03-0.31,0.01-0.45c0.14-1.11,0.44-2.16,0.91-3.13
		c0.18-0.41-0.06-0.86,0.03-1.24c0.11-0.73-0.35-1.24-0.41-1.92l0.05-0.06c0.04-0.54-0.34,1.38-0.12,0.86
		c-0.1-0.08-0.13-0.18-0.11-0.29l0.17-0.23c-0.15-2.01-0.49-3.96-0.78-5.92c-0.4-1.14-0.59-2.38-1.57-3.3
		c-0.27-0.13-0.32-0.65-0.72-0.58c-0.13-0.19-0.44-0.31-0.38-0.57c-0.63-0.61-0.69-2-1.37-2.49l0,0c-0.95-0.81-1.56-1.53-2.42-2.37
		c-0.38-0.26-0.86-0.28-1.23-0.59c-0.48,0-0.79-0.41-1.23-0.53c-1.55-0.16-2.97-0.37-4.43,0.22c-0.45,0.14-1.33,0.65-1.78,0.78
		c-0.54,0.52-0.71,0.86-1.33,1.21c-0.87,0.77-2.23,1.08-2.63,2.31c-0.57,0.39-0.52,1.04-0.93,1.5c0.05,0.55-0.29,0.94-0.71,1.28
		c-0.64,0.01-0.79,0.97-1.43,0.98c-0.4,0.27-0.21,0.85-0.2,1.24l0.06,0.06c-0.3,0.05-0.35,0.37-0.68,0.33
		c0.03,0.03,0.06,0.08,0.11,0.06c0.04,0.22-0.22,0.16-0.29,0.34c-0.15-0.06-0.22,0.07-0.34,0.1c0.04,0.26-0.35,0.19-0.51,0.28
		c-0.24-0.35-0.27,0.14-0.51,0.16c-0.45-0.01-0.79-0.25-1.24-0.26c-0.05-0.09-0.23-0.14-0.16-0.28c-0.3-0.16-0.45-0.61-0.78-0.36
		c0.01,0.34-0.26,0.63-0.13,0.95c-0.35,0.33-0.67-0.18-1.02-0.02c-0.22-0.16-0.43-0.38-0.66-0.63c0.08-0.11,0.27-0.17,0.23-0.33
		c-0.06-0.13-0.14,0.01-0.22,0v-0.11c0.11,0.04,0.16-0.05,0.23-0.11c0.02-0.11-0.01-0.21-0.11-0.28c-0.02,0.17-0.43,0.19-0.23,0.44
		c-0.08,0.06-0.07,0.17-0.18,0.22c-0.21-0.02-0.14-0.26-0.21-0.4c-0.04-0.1,0.05-0.16,0.12-0.22c0.1,0.01,0.15,0.12,0.22,0.18
		c0.11-0.06,0.05-0.19,0.07-0.28c-0.11-0.32-0.29,0.2-0.39-0.12c-0.06,0.04-0.09,0.13-0.17,0.11c0.03-0.03,0.08-0.06,0.05-0.11
		c-0.03-0.07-0.1-0.06-0.16-0.06c-0.07,0.03-0.06,0.1-0.06,0.17l0.05,0.06c-0.04,0.05-0.13,0.08-0.11,0.16
		c-0.11-0.24-0.69-0.18-0.38-0.57c-0.09-0.19-0.36-0.1-0.33-0.35c0.16-0.13,0.28-0.29,0.23-0.51l-0.05-0.06
		c-0.09,0.37-0.39,0.02-0.57-0.01l-0.32-0.62c0.12-0.31-0.02-0.71,0.36-0.9c0.18,0.06,0.43-0.01,0.56,0.18
		c0.06-0.18,0.13-0.36,0.12-0.51l-0.05-0.05l-0.28,0.27l-0.17-0.22c-0.08,0.05-0.13,0.16-0.23,0.16c0.11-0.22-0.02-0.66,0.35-0.67
		c0.04-0.1-0.04-0.16-0.11-0.22c0.03-0.34,0.15-0.63,0.36-0.89c-0.05-0.17,0.14-0.39,0.24-0.56c0.3,0,0.1-0.42,0.4-0.39
		c-0.11-0.13,0.06-0.28,0.01-0.45c0.59-0.09-0.04-0.6,0.47-0.78c-0.03-0.17,0.04-0.29,0.17-0.39c0.01-0.77,0.25-1.43,0.55-2.07
		c0.28-1.22,1.69-1.8,2.14-2.95c0.52-0.73,1.11-1.52,1.73-2.1l0.11,0c0.52-0.68,1.34-1.11,2.06-1.53c0.75-0.84,1.81-1.35,2.74-1.98
		c0.62-0.33,1.38-0.36,2.09-0.46c0.19,0.25,0.45,0.01,0.68,0.01c0.65-0.61,1.57-0.54,2.33-0.92c0.4,0.1,0.75-0.15,1.12,0.02
		c0.09-0.07,0.22,0.1,0.34,0.12c0.67,0.07,1.38,0.39,2.02,0.21c0.67,0.01,1.28-0.16,1.92-0.24c0.12,0.29,0.26-0.04,0.4-0.05
		c0.41-0.01,0.82-0.18,1.24-0.03l0.11-0.11C187.62,58.09,188.08,58.03,188.36,58.06z"/>
	<path class="st0" d="M185.29,39.2c0.24-0.11,0.46,0.05,0.72,0c0.11,0.27,0.34-0.07,0.47,0.15c0.47,0.16,1.03,0.26,1.3,0.72
		c0.14,0.15,0.39,0.14,0.47,0.37c0.15,0.3,0.35,0.49,0.5,0.79l0.04-0.04c0.24,0.17,0.23,0.52,0.51,0.62
		c-0.03,0.11,0.05,0.19,0.07,0.29l0.07-0.08c0.15,0.07,0.02,0.24,0.11,0.33c0.14,0,0.19,0.18,0.33,0.22
		c-0.06,0.38,0.25,0.64,0.18,0.98c0.32,0.33,0.28,0.8,0.43,1.2c-0.06,0.21-0.11,0.35-0.04,0.58c-0.14,0.23-0.41,0.43-0.72,0.4
		c-0.32,0.43-0.82,0.64-1.2,1.01v0.08l-0.84,0.43c-0.48,0.03-1.05-0.26-1.45,0.11c-0.25-0.1-0.48,0.07-0.69-0.15
		c-0.23-0.1-0.36,0.22-0.54,0c-0.34,0.29-0.77-0.07-1.16-0.1c-0.39-0.05-0.84,0.07-1.23,0.03c-0.25,0.09-0.51,0.13-0.8,0.11
		l-0.11,0.15c-0.07-0.1-0.21-0.18-0.36-0.15c-0.06,0.13-0.2,0.23-0.32,0.29c-0.14-0.07-0.27-0.27-0.44-0.14
		c-0.2-0.04-0.2,0.22-0.4,0.18c-0.07-0.2-0.27-0.25-0.36-0.44c-0.27-0.39-0.27-0.91-0.62-1.27c-0.06-0.46-0.33-0.88-0.25-1.34
		c0.06,0.01,0.08-0.05,0.11-0.08c-0.13-0.05-0.02-0.14,0-0.21c0.04,0,0.09-0.01,0.11,0.03l0.11-0.11c-0.19-0.16,0.22-0.3,0.03-0.51
		c0.16-0.24,0.28-0.5,0.32-0.8c0.1-0.41,0.51-0.68,0.8-1.01c0.35-0.1,0.6-0.33,0.79-0.65c0.22-0.85,1.09-1.46,1.85-1.78
		c0.39-0.08,0.86,0.17,1.23-0.07l-0.04-0.04c0.18-0.11,0.46,0.07,0.58-0.14C185.02,39.29,185.16,39.08,185.29,39.2z"/>
	<path class="st0" d="M193.89,45.92h0.33c0.48,0.29,0.7,0.96,1.27,1.01c0.38,0.27,0.41,0.78,0.87,1.01c0.35-0.01,0.6-0.13,0.91-0.03
		c0.56-0.02,0.78,0.54,1.08,0.91c-0.09,0.11,0.01,0.23,0.07,0.32c-0.03,0.22,0.09,0.5-0.1,0.65c0.15,0.18-0.01,0.35,0.1,0.54
		c0.09,0.28-0.09,0.54,0.07,0.8c-0.12,0.13,0.08,0.22,0.03,0.36c-0.04,0.51,0,1.06-0.51,1.38c0.04,0.09-0.07,0.12-0.11,0.18
		c-0.23-0.03-0.33,0.24-0.54,0.26c-0.78,0.63-1.73,0.87-2.75,0.9c-0.15,0.02-0.38-0.02-0.54-0.11l-0.26,0.03v-0.07
		c0.07,0.01,0.14-0.01,0.18-0.07c-0.12-0.06-0.24-0.23-0.36-0.18l0.11,0.18c-0.09,0.07-0.25-0.14-0.33,0c-0.1-0.08-0.27,0-0.37-0.07
		c0.14-0.04,0.02-0.16,0-0.25c-0.15-0.04-0.1,0.19-0.25,0.15l-0.1-0.11c-0.51-0.1-1.02,0.02-1.52,0.03
		c-0.15-0.02-0.27-0.23-0.4-0.18c0,0.04-0.01,0.09,0.04,0.11h0.08v0.04c-0.08-0.01-0.17,0.02-0.22-0.08
		c-0.23-0.02-0.51,0.06-0.69-0.07c0.06-0.06,0.02-0.17,0.03-0.25l-0.07-0.08c-0.05,0.16-0.02,0.42-0.25,0.43
		c0.05-0.21-0.37-0.14-0.18-0.36c0.05,0.02,0.11,0.02,0.15,0.07c0.06-0.03,0.02-0.09,0.03-0.15c-0.11-0.12-0.23,0.1-0.32-0.07
		l-0.08,0.07l-0.07-0.14c-0.04,0.02-0.04,0.07-0.04,0.11c-0.04-0.09-0.13-0.07-0.22-0.08l-0.03,0.04c-0.07-0.1-0.17-0.09-0.18-0.22
		c-0.03,0.04-0.09,0.06-0.08,0.11c-0.29-0.19-0.19-0.53-0.36-0.76c-0.17-0.1-0.1-0.41-0.36-0.43c-0.16-0.05,0.04-0.4-0.18-0.29v0.07
		c-0.35-0.2-0.25-0.68-0.22-1.02c0.05-0.04,0.05-0.11,0.11-0.14c-0.09-0.22,0.14-0.39,0.22-0.58c0.23-0.23,0.58-0.3,0.76-0.58
		c0.31-0.06,0.28-0.45,0.48-0.65c0-0.27,0.35-0.4,0.33-0.69c0.31-0.42,0.79-0.9,1.23-1.23c0.05-0.16,0.17-0.16,0.29-0.25
		c0.24-0.25,0.57-0.39,0.79-0.58c0.32,0.01,0.56-0.16,0.83-0.25C193.03,45.75,193.55,45.62,193.89,45.92z"/>
	<path class="st0" d="M174.14,81.02c0.11-0.15,0.38,0.06,0.45-0.19c-0.19-0.14-0.01-0.41-0.25-0.53c0.04-0.03,0.07-0.09,0.13-0.06
		c0-0.07-0.02-0.15,0.06-0.19c-0.42-0.14,0.09-0.42-0.26-0.58c-0.08-0.1-0.11-0.3,0-0.39c-0.39-0.28-0.05-0.74-0.07-1.1
		c-0.47-0.18,0.07-0.56-0.07-0.9c-0.33-0.74-0.08-1.88-0.71-2.58c0.14-0.09,0.36,0,0.52,0.06c0.03-0.04,0.09-0.07,0.07-0.13
		c-0.07-0.15-0.17,0.01-0.26,0l-0.14-0.97c-0.06-0.02-0.09,0.04-0.13,0.06c-0.04-0.2,0.11-0.64-0.13-0.84
		c0.12-0.11,0.21-0.26,0.39-0.2c-0.01-0.19-0.22-0.17-0.33-0.26c0.19-0.35,0.19-0.69,0-1.03c0.04-0.07,0.15-0.1,0.13-0.2h-0.06
		c-0.17-0.13,0.04-0.26,0.06-0.39c-0.42-0.2,0.03-0.82-0.39-0.97l0.13-0.12l-0.06-0.06l-0.07,0.06l-0.13-0.13
		c0.1-0.2-0.19-0.3,0-0.45c0.06,0.04,0.1,0.15,0.2,0.13c0.12-0.05,0.04-0.17,0.06-0.26c-0.09-0.01-0.19,0.16-0.26,0
		c0.01-0.13,0.16-0.19,0.26-0.26l-0.06-0.06c-0.06-0.03-0.09,0.03-0.14,0.06l-0.06-0.06c0-0.18-0.29-0.4,0-0.52l-0.12-0.14
		c0.02-0.25-0.35-0.27-0.39-0.52l0.06-0.06l0.06,0.06c0.3-0.31-0.36-0.21-0.13-0.58c-0.34,0.01-0.3-0.37-0.39-0.58
		c0.24-0.26-0.2-0.56,0.13-0.78c-0.13-0.03-0.22-0.19-0.38-0.13c-0.24-0.12-0.11-0.3-0.2-0.46l0.12-0.13
		c0.02-0.13-0.01-0.24-0.12-0.32c0.12-0.41-0.22-0.61-0.19-0.97c-0.2-0.3-0.36-0.66-0.71-0.84c0.29-0.35-0.23-0.54-0.26-0.84
		c0-0.45-0.47-0.86-0.71-1.29c-0.22-0.65-0.56-1.25-0.97-1.81c-0.28-1-0.93-1.67-1.55-2.52c-0.62-1.18-2.17-2.13-2.78-3.31
		l0.06-0.06l-0.39-0.38c-0.15-0.56-0.49-1.04-0.91-1.5c-0.36-0.58-1.04-0.82-1.36-1.48c-0.15,0.29-0.44,0.24-0.71,0.26
		c-0.37-0.25-0.53,0.37-0.84,0.45c-0.53,0.04-0.87-0.35-1.23-0.71c-0.12-0.1,0.02-0.36-0.26-0.26c-0.07-0.04-0.06-0.12-0.06-0.19
		h-0.25c-0.07-0.09-0.2-0.15-0.2-0.27c0.04-0.11,0.16-0.31,0.33-0.25v-0.13c-0.09-0.02-0.19,0.15-0.26,0
		c-0.17-0.2,0.02-0.41,0.13-0.59c-0.12,0.04-0.17-0.07-0.26-0.07c0.04,0.39-0.49,0.21-0.45,0.59c-0.41,0.26-0.64-0.35-1.04-0.32
		c-0.89-0.72-1.9-1.16-2.78-1.88c0-0.08-0.02-0.16,0.07-0.2c0.13,0.17,0.25-0.04,0.39-0.06c-0.19-0.18-0.43-0.22-0.65-0.33
		c-0.26,0.1-0.68-0.2-0.91,0l-0.19-0.26c0.03-0.04,0.09-0.08,0.06-0.13l-0.06,0.07c-0.18,0.06-0.27-0.09-0.39-0.2l-0.19,0.26
		l0.07,0.06c0.02,0.06-0.03,0.09-0.07,0.13c-0.08,0-0.15,0.02-0.2-0.06c0.25-0.38-0.33-0.24-0.46-0.45
		c-0.04-0.11,0.08-0.16,0.06-0.26c-0.43-0.21-0.91,0.22-1.23-0.26c-0.3,0.37-0.4-0.37-0.71-0.13c-0.31,0-0.61-0.27-0.91-0.13
		c-0.19-0.04-0.37-0.14-0.51-0.32c-0.23,0.04-0.39,0.21-0.58,0.32c-0.26-0.32-0.53,0.4-0.65-0.13c-0.55,0.01-1.12,0.02-1.55-0.25
		c-0.13,0.21-0.27-0.15-0.39,0.06c-0.3-0.18-0.73,0.1-0.97-0.13c-0.38,0.13-0.81-0.26-1.03,0.06c-0.17,0.06-0.23-0.12-0.39-0.06
		c-0.24,0.07-0.57,0.4-0.9,0.19c-0.58,0.21-0.97-0.44-1.55-0.39c-0.35-0.12-0.5-0.73-0.84-0.46c-0.23,0.06-0.41,0.24-0.65,0.26
		c-0.36,0.01-0.99,0.29-1.16-0.13h-0.39c-1.18-0.38-2.38-0.37-3.69-0.26c-0.24,0.18-0.61,0.2-0.84,0.19l-1.23,0.46l-0.12,0.26
		l-0.13-0.13c-0.26-0.09-0.56,0.14-0.84,0.19c-0.36,0.04-0.34,0.75-0.78,0.39c-0.25-0.02-0.03,0.27-0.26,0.32
		c-0.06,0.02-0.09-0.03-0.13-0.07l-0.26,0.26l-0.06-0.06c0.03-0.05,0.09-0.08,0.06-0.14c-0.07,0-0.15-0.02-0.19,0.07
		c0.03,0.04,0.08,0.07,0.06,0.13c-0.05,0.03-0.08,0.09-0.13,0.06c-0.02,0.09,0.06,0.21-0.07,0.26c-0.11,0-0.17-0.13-0.26-0.2
		l-0.13,0.13c0.06-0.02,0.09,0.04,0.13,0.07c0,0.07,0.01,0.15-0.06,0.19c-0.07-0.04-0.1-0.15-0.2-0.12
		c-0.05,0.34-0.43,0.13-0.58,0.39l0.07,0.06c-0.15,0.04-0.3,0.28-0.45,0.13c-0.07,0.16-0.24,0.08-0.33,0.19
		c0,0.08-0.01,0.16,0.06,0.2c-0.55-0.08-0.8,0.37-1.22,0.52c0.07,0.25-0.08,0.36,0.06,0.58l-0.06,0.07c-0.08,0-0.15,0.02-0.2-0.07
		c-0.02-0.12,0.03-0.21,0.07-0.32c-0.1-0.04-0.24-0.13-0.32,0l0.06,0.06c-0.15,0.09-0.35,0.06-0.45,0.25
		c-0.54,0.01-0.78,0.77-1.3,0.84c-0.49,0.46-1.12,0.62-1.55,1.23c-0.3,0.62-1.09,0.77-1.49,1.3c-0.63,0.33-1.07,0.97-1.75,1.22
		c-0.09,0.23-0.3,0.63-0.65,0.65c-0.29,0.37-0.55,0.7-0.97,0.91c-0.88,1.12-1.87,2.15-2.65,3.36c-0.31,0.87-0.91,1.45-1.22,2.33
		c-0.26,0.48-0.59,0.92-0.78,1.42c-0.39,0.6-0.54,1.41-0.78,2.13c0.03,1.21-0.32,2.33-0.19,3.49c-0.36,0.28-0.15,0.79-0.39,1.1
		c0.23,0.15-0.3,0.31,0.06,0.45c-0.25,0.2-0.03,0.6-0.19,0.84c-0.03,0.26-0.22,0.54-0.13,0.77c-0.09,0.14-0.07,0.35-0.26,0.45
		c0.09,1.2-0.39,2.16-0.58,3.24c-0.04,0.61-0.18,1.24-0.13,1.81c-0.49,1.5-0.12,3.37-0.32,4.98l0.19,0.32
		c0.12,0.54,0.04,1.25,0.07,1.75c-0.16,0.26,0.21,0.45,0.33,0.65c0.03,0.29,0.13,0.63,0,0.91c0.14,0.58,0.21,1.24,0.19,1.88H121
		l0.25-0.01l0.09-0.33l0.4-0.31c0.03-0.49,0.02-0.97-0.04-1.42c0.24-2.19-0.18-4.27-0.12-6.45c-0.27-0.39-0.24-0.91-0.37-1.35
		c0.21-0.31-0.15-0.62,0.06-0.92c-0.37-0.41,0.19-0.82,0-1.23c0.24-0.17-0.06-0.48,0.19-0.68c-0.12-1.28,0.67-2.34,0.73-3.62
		l0.12-0.12c0.11-0.82,0.77-1.41,1.05-2.15c0.18-0.89,1.22-1.12,1.48-1.98c0.26-0.28,0.33-0.71,0.71-0.82
		c0.35-0.28,0.32-0.7,0.71-0.87c0.3-0.34,0.59-0.41,0.84-0.88c0.28-0.06,0.46-0.36,0.74-0.43c0.67-1.22,2.32-1.01,3.02-2.17
		c0.4-0.34,0.79-0.46,1.28-0.72c0.65-0.51,1.08-1.17,1.84-1.43c0.48-0.54,1.12-0.43,1.69-0.77c0.25-0.04,0.78-0.22,1.02-0.1
		c0.97-0.34,1.78-1.09,2.71-1.52c0.66-0.54,1.5-0.43,2.34-0.52c0.42,0.21,0.94,0.06,1.33,0.36c0.61,0,1.02-0.02,1.53,0.26
		c0.41,0.31,0.88,0.76,1.38,0.97c0.53,0.31,0.95,0.31,1.38,0.71c0.5,0.08,0.95,0.36,1.48,0.36c0.35,0.58,1.16,0.08,1.53,0.61
		c0.53,0.26,0.88,0.59,1.43,0.82c0.46,0.71,1.46,0.55,2.1,0.98l0.76,0.65c0.23,0.37,0.58,0.19,0.97,0.15
		c0.21,0.22,0.79,0.04,1.03,0.18c0.18,0.49-0.57,0.66-0.31,1.11c0.05,0.02,0.08-0.03,0.12-0.06c0.08,0.24-0.45,0.64,0.06,0.8
		l0.06-0.06l0.06,0.06c-0.02,0.1,0.06,0.25-0.06,0.31c0.5,0.38,0.83,0.77,1.1,1.29c0.25,0.59,0.21,1.3,0.74,1.78
		c0.63,0.2,0.74,0.93,0.92,1.47c0.38,0.62,0.49,1.35,0.87,1.97c-0.24,0.83,0.72,1.39,0.12,2.15c0.27,0.22-0.09,0.45,0.06,0.67
		l0.07-0.06c0.06,0,0.14-0.02,0.18,0.06c-0.02,0.08,0.06,0.2-0.06,0.25l-0.12-0.13l-0.13,0.13c0,0.6,0,1.07,0,1.59
		c0.04,0.26,0.14,0.38,0.37,0.49c-0.16,0.21,0,0.37-0.06,0.56l0.31,0.37c0.04,0.21-0.14,0.39-0.25,0.49l0.25,0.24
		c-0.16,0.05-0.27,0.22-0.31,0.37l0.25,0.12c-0.21,0.2,0.17,0.42-0.19,0.56c0.02,0.15,0.08,0.34,0.25,0.37
		c0.26,0.24-0.26,0.47,0.06,0.67c-0.03,0.61-0.06,1.85-0.06,1.85l0.06,0.06c0.05,0.7-0.18,1.26,0.43,1.72l0.56,0.59l0.27,0.06
		l-0.15,0.61c0.14,0.19,0.13,0.36,0.51,0.59c0.01,0.15,0.59,0.32,0.53,0.44c-0.06,0.02,0.4,0.17,0.35,0.13
		c-0.03,0.36-0.1,0.34-0.32,0.4c0.07,0,0.15-0.01,0.19,0.07l0.07-0.07c0.06-0.02,0.09,0.04,0.13,0.07c-0.05,0.07-0.16,0.1-0.13,0.19
		c0.34,0,0.39,0.42,0.26,0.65c0.24,0.42,0.43-0.25,0.71,0.07c0.08-0.08,0.27-0.09,0.2-0.26c0.18-0.02,0.24-0.31,0.45-0.26
		c0.26,0.33,0.46,0.14,0.77,0.07c0.2,0.12-0.08,0.19-0.06,0.32c0.21,0.3,0.71,0.36,1.04,0.32c0.61-0.46,1.18-0.02,1.88-0.07
		c0.48-0.42,0.77,0.42,1.29,0.33c0-0.52,0.29,0.17,0.45-0.07c0.11-0.1,0.1-0.31-0.06-0.39c0.14-0.15,0.3,0.02,0.45,0
		c0.18-0.24,0.54-0.05,0.71-0.32c0-0.04-0.24-0.17-0.06-0.26c0.16-0.04,0.37-0.4,0.52-0.13l0.58-0.58l0.13,0.13
		c0.23-0.12,0.32-0.36,0.58-0.45c-0.05-0.27,0.13-0.68-0.2-0.78l0.07-0.06c0.34,0.19,0.56-0.3,0.97-0.12c0.33-0.22-0.14-0.43,0-0.72
		c0.08-0.14,0.22-0.14,0.33-0.07c0-0.15,0.29-0.34,0-0.45l0.12-0.13C174.7,81.11,174.25,81.24,174.14,81.02z"/>
	<path class="st0" d="M121.51,87.23l0.41-0.64c-0.1-0.34,0.08-0.76-0.3-1c-0.2,0.06-0.46-0.04-0.62,0.14
		c-0.05-0.2-0.11-0.4-0.08-0.56l0.06-0.06l0.28,0.32l0.21-0.23c0.08,0.06,0.13,0.19,0.23,0.2c-0.1-0.25,0.08-0.71-0.31-0.76
		c-0.04-0.11,0.06-0.17,0.13-0.23c0-0.37-0.1-0.7-0.3-1c0.07-0.19-0.12-0.43-0.21-0.63c-0.32-0.03-0.06-0.47-0.4-0.46
		c0.12-0.13-0.04-0.3,0.03-0.49c-0.62-0.15,0.1-0.64-0.43-0.89c0.06-0.18-0.02-0.32-0.15-0.44c0.06-0.83-0.13-1.57-0.4-2.29
		c-0.19-1.35-1.66-2.1-2.05-3.38c-0.5-0.84-1.05-1.75-1.68-2.44l-0.12,0c-0.5-0.78-1.34-1.33-2.08-1.86
		c-0.73-0.98-1.84-1.63-2.79-2.39c-0.64-0.42-1.45-0.53-2.22-0.7c-0.22,0.26-0.49-0.03-0.74-0.05c-0.65-0.72-1.65-0.73-2.43-1.21
		c-0.15,0.02-0.29,0-0.43-0.03c-0.01,0-0.01-0.01-0.01-0.01c-0.41-0.03-0.94-0.7-1.24-0.11c-0.46,0.11-0.65-0.44-1.06-0.42
		c-0.38-0.23-0.94-0.01-1.25-0.41l-0.06,0.06c-0.69-0.2-1.35,0.37-2.13,0.3c-0.34-0.26-0.87-0.25-1.24-0.24
		c-1.05,0.05-1.81,0.97-2.9,0.71c-0.08-0.38-0.56-0.27-0.89-0.3c-0.63,0.79-1.85,0.16-2.54,0.77c-0.56-0.03-0.68,0.61-1.18,0.71
		c-0.28,0.03-0.63-0.1-0.83,0.12c-0.44,0.48-1.05,0.53-1.54,0.88c-0.34,0.02-0.59,0.28-0.89,0.42c-0.22,0.42-0.67,0.57-1.01,0.82
		c-0.11,0.09-0.13,0.47-0.35,0.24c-0.08,0.03-0.06,0.11-0.06,0.18c-0.44,0.5-1.24,0.41-1.54,1c-0.14-0.04-0.24,0.16-0.36,0
		c-0.47,0.25-1.08,0.18-1.42,0.77c-0.06,0.86-1.02,1.2-1.24,1.95c-0.31,0.32-0.42,0.93-0.94,0.95c-0.31,0.66-1.11,0.66-1.36,1.36
		c0.01,0.76-0.68,1.24-0.95,1.89c-0.71,0.42-0.51,1.26-1,1.72c-0.02,1.19-0.63,2.12-0.83,3.26c-0.09,0.34-0.27,0.67-0.42,1
		c0.38,0.45-0.2,0.78-0.12,1.24c-0.65,0.94-0.41,2.24-0.89,3.26c0.22,0.83-0.17,1.53-0.12,2.36c0.02,0.35-0.32,0.79,0.07,1.07
		c-0.11,0.95-0.31,2.01-0.07,2.96l0.07-0.06c0.29,0.12-0.06,0.27-0.07,0.41c0.07,0,0.14-0.02,0.18,0.06
		c-0.27,0.34-0.2,0.72-0.3,1.18c0.03,1.1,0.08,2.19,0.06,3.31c-0.03,0.29-0.17,0.62-0.11,0.89c-0.12,0.35,0.14,0.84-0.12,1.18
		c-0.93,0.98,0.01,2.33-0.12,3.55l-0.06,0.06c0.02,0.63-0.05,1.46,0.06,2.13c-0.15,0.42,0.04,0.83,0.07,1.24
		c-0.16,0.13,0.05,0.2,0.12,0.3L74.47,109c-0.13,0.66,0.37,1.19,0.89,1.48c0,0.65,0.26,1.2,0.59,1.71c0.28-0.02,0.51,0.44,0.77,0.12
		c0.25-0.03,0.45,0.03,0.59,0.23c0.48-0.03,0.63,0.48,0.89,0.77c0.2-0.32,0.72,0,0.83-0.41c0.07,0.16,0.04,0.49,0.35,0.35
		c0.24,0.19,0.55,0.33,0.59,0.66c0.18,0.33,0.93,0.1,0.71,0.59c0.07,0.14,0.22,0.07,0.29,0.18c0.38-0.27,0.99,0.02,1.36-0.24
		c0.1-0.06,0.15-0.24,0.3-0.18c0.25-0.55,0.85-0.55,1.19-1.01c0.01-0.58,0.69-0.56,0.77-1.13c-0.11-0.61-0.02-1.44,0.35-2
		c0.07-0.28-0.11-0.45-0.24-0.66c0.49-0.15,0.28-0.71,0.41-1.06c0.02-1.11-0.25-2.09-0.36-3.14c-0.16-0.23-0.19-0.48-0.11-0.77
		c0.3-0.28,0.17-0.83,0.11-1.17c0.3-0.5-0.11-1.3,0.36-1.73c-0.27-0.73-0.01-1.53,0.12-2.25c-0.17-1.16,0.29-2.21,0.3-3.37
		c-0.25-1.39-0.05-3.03,0.06-4.5l-0.06-0.06c-0.03-0.1,0.06-0.15,0.06-0.23c-0.26-0.48,0-1.03,0-1.54c0.27-0.52,0.18-1.18,0.53-1.65
		c0.74-0.4,0.75-1.3,1.13-1.96c-0.01-0.83,0.67-1.36,0.95-2.07c0.12-1.1,0.43-2.22,1.48-2.84c0.27,0.01,0.47-0.2,0.47-0.47
		c0.09-0.02,0.12,0.09,0.18,0.12c0.44-0.08,0.91-0.07,1.31-0.24c0.65-0.56,1.24-1.15,1.77-1.77c1.48-1.26,3.38-1.5,5.32-1.6
		c0.33,0.1,0.75,0.03,1.01,0.3c0.41-0.09,0.94-0.11,1.24,0.24c0.14,0.04,0.26-0.06,0.29-0.18c0.57-0.26,1.26-0.06,1.72,0.29
		c-0.02,0.19,0,0.36,0.17,0.47c0.2-0.08,0.33-0.33,0.59-0.24c0.32,0.27,0.79,0.21,1.18,0.3c0.08-0.17,0.07-0.38,0.24-0.52
		c0.52,0.59,1.1,1.33,1.71,1.75c0.88,0.92,2.32,1.38,2.63,2.75c0.58,0.47,0.47,1.18,0.87,1.71c-0.11,0.59,0.22,1.04,0.64,1.45
		c0.69,0.07,0.76,1.13,1.45,1.2c0.4,0.33,0.15,0.94,0.1,1.36l-0.06,0.05c0.32,0.08,0.34,0.44,0.7,0.41
		c-0.04,0.03-0.07,0.08-0.12,0.05c-0.07,0.24,0.22,0.2,0.28,0.39c0.16-0.04,0.23,0.1,0.36,0.14c-0.07,0.28,0.35,0.23,0.53,0.35
		c0.29-0.36,0.28,0.18,0.53,0.21c0.49,0.04,0.87-0.19,1.36-0.16c0.07-0.09,0.26-0.13,0.21-0.29c0.33-0.14,0.54-0.61,0.88-0.31
		c-0.05,0.37,0.22,0.71,0.05,1.04c0.34,0.39,0.75-0.14,1.1,0.07c0.26-0.15,0.5-0.36,0.77-0.62c-0.08-0.13-0.27-0.21-0.22-0.38
		c0.08-0.14,0.15,0.02,0.24,0.01l0.01-0.12c-0.12,0.03-0.17-0.07-0.24-0.14c-0.01-0.12,0.03-0.23,0.14-0.29
		c0.02,0.18,0.45,0.24,0.21,0.5c0.08,0.07,0.07,0.19,0.17,0.26c0.24-0.01,0.18-0.27,0.27-0.41c0.05-0.11-0.04-0.18-0.1-0.24
		c-0.1-0.01-0.16,0.11-0.25,0.16c-0.11-0.07-0.03-0.21-0.04-0.31c0.14-0.34,0.3,0.24,0.43-0.1c0.07,0.05,0.09,0.15,0.18,0.13
		c-0.03-0.04-0.08-0.07-0.06-0.12c0.04-0.08,0.12-0.05,0.19-0.05c0.07,0.04,0.05,0.12,0.05,0.19l-0.06,0.06
		c0.04,0.06,0.14,0.1,0.11,0.19c0.15-0.25,0.76-0.13,0.47-0.58c0.11-0.19,0.4-0.07,0.39-0.34c-0.17-0.15-0.27-0.33-0.2-0.57
		l0.06-0.06C120.96,87.59,121.32,87.25,121.51,87.23z"/>
</g>
<g>
	<path class="st0" d="M272.49,40.45L272.49,40.45l-4.66-0.65l-0.02,0.03c-0.15-0.06-0.33-0.07-0.51,0
		c-0.38,0.13-0.59,0.51-0.47,0.85c0.05,0.14,0.15,0.26,0.28,0.33l0,0l2.22,1.44v5.34h-2.02h-1.51c0,0-0.84,0-0.84,0.83
		c0,0.61,0.88,1.94,2.26,1.94h2.11v11.26l0,0v2.17v1.47c0,0-0.02,0.81,0.83,0.81c0.86,0,3.07-0.6,3.07-2.19v-2.26v-0.29V41.43
		l-0.01-0.01c0-0.04,0.01-0.08,0.01-0.12C273.24,40.86,272.91,40.5,272.49,40.45z"/>
	<path class="st0" d="M279.06,39.77l-0.01-0.01c0.01-0.04,0.01-0.07,0.01-0.12c0-0.44-0.32-0.79-0.75-0.85l-0.01-0.01l-4.65-0.65
		l-0.02,0.03c-0.15-0.06-0.33-0.07-0.51-0.01c-0.38,0.14-0.59,0.51-0.47,0.85c0.05,0.15,0.16,0.26,0.29,0.33h0l2.22,1.44V62.9v0.14
		v2.32v1.47c0,0-0.02,0.81,0.83,0.81c0.85,0,3.07-0.6,3.07-2.19V62.9h0V39.77z"/>
	<path class="st0" d="M233.35,40.87L233.35,40.87l2.22,1.44v12.06h0v2.18v1.47c0,0-0.02,0.81,0.83,0.81c0.85,0,3.06-0.6,3.06-2.2
		v-2.26v-0.28v-3.69h2.48v4.25v0.14v2.32v1.47c0,0-0.02,0.81,0.83,0.81c0.85,0,3.07-0.6,3.07-2.19v-2.55h0v-15l-0.01-0.01
		c0-0.04,0.01-0.08,0.01-0.12c0-0.44-0.33-0.79-0.74-0.84l-0.01-0.01l-4.65-0.65l-0.01,0.02c-0.16-0.06-0.34-0.07-0.52-0.01
		c-0.37,0.14-0.58,0.52-0.47,0.85c0.05,0.15,0.15,0.25,0.29,0.33l0,0l2.22,1.43v7.12h-2.48V41.3l-0.01-0.02
		c0.01-0.04,0.01-0.08,0.01-0.12c0-0.44-0.32-0.79-0.74-0.85l-0.01,0l-4.65-0.65l-0.02,0.03c-0.16-0.06-0.34-0.06-0.52,0
		c-0.38,0.13-0.59,0.51-0.47,0.85C233.12,40.68,233.22,40.8,233.35,40.87z"/>
	<path class="st0" d="M245.86,62.06L245.86,62.06l0.01,7.01h-0.01v1.47c0,1.56-2.17,2.15-3,2.15c-0.84,0-0.81-0.8-0.81-0.8v-1.44
		v-2.41h0.02V63h-9.87h-0.58h-1.86c-1.29,0-2.11-1.24-2.11-1.8c0-0.77,0.78-0.77,0.78-0.77h1.41h14.69c0,0,1.35-0.22,1.35,1.34
		V62.06z"/>
	<path class="st0" d="M230.76,56.24V56.2h2.19V42.76l-0.01-0.01c0-0.04,0.01-0.08,0.01-0.12c0-0.44-0.32-0.79-0.74-0.84l-0.01-0.01
		l-4.65-0.64l-0.01,0.03c-0.16-0.06-0.34-0.07-0.52,0c-0.38,0.12-0.58,0.51-0.47,0.85c0.05,0.14,0.15,0.26,0.28,0.33l0,0l2.22,1.43
		v4.03h-3.65v-3.12l0-0.01c0-0.04,0.01-0.08,0.01-0.12c0-0.44-0.33-0.79-0.75-0.85v-0.01L220,43.06l-0.01,0.02
		c-0.16-0.05-0.34-0.06-0.52,0c-0.37,0.13-0.59,0.51-0.47,0.85c0.04,0.15,0.15,0.26,0.28,0.33v0l2.22,1.43V56.2h3.53v0.03H230.76z
		 M229.05,50.42v3.2h-3.65v-3.2H229.05z"/>
	<path class="st0" d="M266.44,52.53c-0.37-0.37-3.5-1.72-5.13-2.41c2.69-3.2,3.5-5.24,3.9-6.26c0.59-1.54-0.9-1.71-0.9-1.71h-0.35
		l-8.24-0.02h-1.77h-1.51c0,0-0.84,0-0.84,0.82c0,0.61,0.88,1.94,2.26,1.94h0.99l4.99,0.06c0,0-0.02,0.77-2.03,4.04
		c-1.92,3.12-6.51,6.25-6.91,6.52v-0.01l-0.1,0.06l0,0l0,0l-0.88,0.5c0,0-0.55,0.3-0.26,0.84c0.19,0.35,1.07,0.86,1.89,0.62l0,0
		l0.01,0c0.11-0.03,0.21-0.07,0.31-0.13l0,0c3.14-1.29,6.62-4.43,8.15-5.9l-0.42,0.44c0.14-0.14,0.27-0.27,0.39-0.4
		c1.34,1.01,2.95,3.52,3.44,4.59c0.55,1.17,2.17,1.57,3.02-0.08C267.29,54.41,266.95,53.04,266.44,52.53z"/>
	<g>
		<path class="st0" d="M359.55,61.04L359.55,61.04c0-0.04,0.01-0.09,0.01-0.13c0-0.43-0.32-0.79-0.74-0.84l-0.01-0.01l-4.65-0.64
			l-0.01,0.03c-0.15-0.06-0.34-0.07-0.52,0c-0.37,0.13-0.58,0.51-0.47,0.85c0.05,0.14,0.15,0.25,0.28,0.32v0.01l2.22,1.43
			c0,0,0.02,5.19,0.02,6.68c0,1.47,1.35,1.39,1.35,1.39l1.75,0.01h13.94v-2.63h-13.17V61.04z"/>
		<path class="st0" d="M370.36,48.11v-8.74l-0.01-0.02c0.01-0.04,0.01-0.07,0.01-0.11c0-0.44-0.32-0.79-0.74-0.85l-0.01-0.01
			l-4.65-0.64l-0.02,0.03c-0.15-0.07-0.34-0.07-0.52-0.01c-0.37,0.14-0.58,0.52-0.46,0.86c0.05,0.15,0.16,0.26,0.28,0.33l0,0
			l2.22,1.43V54.7v0.14v2.32v1.47c0,0-0.02,0.82,0.84,0.82c0.84,0,3.06-0.6,3.06-2.2V54.7h-0.01v-3.84h4.53v-2.75H370.36z"/>
		<path class="st0" d="M355.72,53.56c2.29,0,5.51-0.23,7.96-0.57v-2.56c-2.41,0.27-4.91,0.49-7.88,0.49h-2.03h-0.31h-0.82v-7.44
			h9.26v-2.58h-9.45l0.01-0.01l-3.05,0.01h-0.62h-1.03c-0.18,0-0.37-0.02-0.55,0.04c-0.37,0.13-0.58,0.52-0.46,0.85
			c0.05,0.15,0.15,0.26,0.28,0.33v0l1.77,1.14v10.28h1.91l-0.02,0.01H355.72z"/>
	</g>
	<g>
		<path class="st0" d="M389.46,49.5c2.69-3.2,3.51-5.25,3.9-6.27c0.6-1.53-0.89-1.71-0.89-1.71h-0.36l-8.24-0.02h-1.78h-1.51
			c0,0-0.84,0-0.84,0.83c0,0.6,0.88,1.93,2.26,1.93H383l5,0.06c0,0-0.02,0.77-2.03,4.04c-1.92,3.12-6.51,6.25-6.92,6.52v-0.01
			l-0.11,0.06l-0.88,0.5c0,0-0.55,0.3-0.25,0.84c0.18,0.35,1.06,0.85,1.88,0.63l0,0l0.02-0.01c0.1-0.03,0.21-0.07,0.31-0.13
			c3.13-1.29,6.62-4.43,8.15-5.9l-0.41,0.44c0.14-0.14,0.26-0.27,0.39-0.4c1.34,1.01,2.95,3.53,3.45,4.59
			c0.54,1.17,2.16,1.57,3.01-0.08c0.85-1.65,0.51-3.01,0-3.52C394.23,51.54,391.09,50.19,389.46,49.5z"/>
		<path class="st0" d="M403.3,62.61V39.48l-0.01-0.01c0.01-0.03,0.01-0.07,0.01-0.12c0-0.43-0.32-0.79-0.74-0.84l-0.01-0.01
			l-4.66-0.65l-0.01,0.03c-0.16-0.06-0.34-0.07-0.52,0c-0.37,0.13-0.58,0.51-0.47,0.85c0.05,0.15,0.16,0.26,0.29,0.32l-0.01,0
			l2.22,1.44v22.12v0.14v2.32v1.47c0,0-0.02,0.82,0.83,0.82c0.86,0,3.07-0.6,3.07-2.2L403.3,62.61L403.3,62.61z"/>
	</g>
	<g>
		<path class="st0" d="M288.06,38.79c-0.39,0.14-0.61,0.53-0.49,0.88c0.05,0.15,0.16,0.26,0.29,0.34l0,0l1.85,1.18V51.2h17.52V38.78
			L288.06,38.79z M293.75,41.42h9.48v7.07h-9.48V41.42z"/>
		<path class="st0" d="M284.27,54.61c0,0-0.82,0-0.82,0.8c0,0.59,0.86,1.87,2.21,1.87h11.46v7.82c0,0-0.02,0.85,0.87,0.85
			c0.89,0,3.19-0.62,3.19-2.27l0-6.4h11.35v-2.67H284.27z"/>
		<path class="st0" d="M289.7,64.02l-2.32-1.49l0,0c-0.14-0.08-0.24-0.19-0.29-0.34c-0.12-0.36,0.1-0.75,0.49-0.88
			c0.19-0.06,0.38-0.06,0.54,0l0.01-0.03l4.88,0.67l0,0.01c0.44,0.06,0.78,0.42,0.78,0.88c0,0.04-0.01,0.08-0.01,0.12l0.01,0.01
			v6.69h13.49v2.73h-14.3l-1.83-0.02c0,0-1.42,0.1-1.42-1.44C289.72,69.41,289.7,64.02,289.7,64.02z"/>
	</g>
	<g>
		<path class="st0" d="M327.12,57.52v-3.85c2.99-0.64,5.05-2.61,5.05-4.87c0-1.96-1.51-3.6-3.62-4.47h4.13v-2.66h-5.53V39.5
			l-0.01-0.02c0-0.04,0.01-0.08,0.01-0.12c0-0.44-0.34-0.81-0.76-0.87l-0.01-0.01l-4.8-0.67l-0.02,0.03c-0.16-0.06-0.35-0.07-0.53,0
			c-0.39,0.13-0.61,0.53-0.49,0.88c0.06,0.15,0.16,0.26,0.29,0.33l0,0l2.29,1.49v1.13h-4.67H317c0,0-0.81,0-0.81,0.8
			c0,0.58,0.85,1.86,2.17,1.86h3.14c-2.14,0.87-3.67,2.51-3.67,4.47c0,2.3,2.23,4.31,5.3,4.91l-0.03,3.92 M321.78,48.8
			c0-1.77,1.56-3.02,3.27-3.02c1.67,0,3.22,1.25,3.22,3.02c0,1.73-1.55,2.97-3.22,2.97C323.34,51.77,321.78,50.53,321.78,48.8z"/>
		<path class="st0" d="M339.91,39.55l-0.01-0.01c0.01-0.04,0.01-0.08,0.01-0.12c0-0.45-0.33-0.82-0.76-0.87l0,0l-4.81-0.67
			l-0.01,0.02c-0.16-0.06-0.35-0.07-0.53,0c-0.38,0.14-0.6,0.53-0.48,0.88c0.05,0.15,0.16,0.26,0.29,0.34v0l2.29,1.48v20.8v0.15v4
			v1.52c0,0-0.01,0.84,0.87,0.84c0.88,0,3.16-0.61,3.16-2.27v-4.23h0v-8.98h4.67v-2.84h-4.67V39.55z"/>
		<path class="st0" d="M324.98,56.77c0.64-0.02,1.23-0.04,1.73-0.06c2.96-0.14,10.15-0.37,10.15-0.37v2.13
			c0,0-14.82,1.27-19.45,1.08c-1.33-0.05-2.18-1.28-2.18-1.86c0-0.8,0.81-0.8,0.81-0.8h1.45c0,0,1.54-0.01,3.46-0.04L324.98,56.77z"
			/>
	</g>
</g>
<g>
	<path class="st0" d="M223.34,84.71l0.02-1.45c0-0.59,0.02-1.11,0.06-1.56c0.33-0.05,0.69-0.08,1.09-0.08c0.55,0,0.97,0.07,1.25,0.2
		c0.27,0.13,0.5,0.36,0.67,0.67c0.18,0.31,0.26,0.7,0.26,1.15c0,0.44-0.07,0.83-0.22,1.18c-0.15,0.34-0.34,0.6-0.56,0.77
		c-0.22,0.17-0.51,0.29-0.87,0.36c-0.36,0.07-0.74,0.1-1.16,0.1h-0.53V84.71z M221.78,93.64l3.13,0.08c0.84,0,1.54-0.1,2.09-0.31
		c0.56-0.21,1.06-0.49,1.49-0.85c0.43-0.35,0.78-0.78,1.06-1.28c0.27-0.5,0.41-1.06,0.41-1.67c0-0.58-0.13-1.11-0.4-1.59
		c-0.27-0.47-0.62-0.82-1.06-1.05c-0.44-0.22-1.23-0.41-2.36-0.54c0.94-0.27,1.54-0.47,1.82-0.63c0.46-0.26,0.83-0.62,1.13-1.08
		c0.29-0.46,0.44-0.96,0.44-1.5c0-0.5-0.13-0.96-0.39-1.36c-0.26-0.4-0.66-0.71-1.22-0.92c-0.56-0.21-1.35-0.32-2.37-0.32
		c-0.27,0-0.85,0.03-1.75,0.08c-0.35,0.02-0.84,0.03-1.46,0.03c-0.63,0-1.15,0-1.57-0.01l-1.28-0.05c-0.15-0.01-0.29-0.01-0.43-0.01
		v0.78c0.81,0.05,1.28,0.12,1.41,0.21c0.07,0.04,0.11,0.1,0.14,0.19c0.05,0.15,0.08,0.75,0.09,1.8c0.02,1.36,0.03,2.36,0.03,3
		c0,2.4-0.01,4.05-0.03,4.96c-0.01,0.44-0.04,0.82-0.07,1.12c-0.22,0.2-0.49,0.39-0.83,0.58v0.44
		C220.61,93.66,221.27,93.64,221.78,93.64z M223.37,92.43l-0.03-1.1v-4.24c0.22-0.05,0.46-0.08,0.71-0.08
		c0.71,0,1.27,0.09,1.68,0.26c0.4,0.17,0.73,0.47,0.97,0.88c0.25,0.42,0.37,0.96,0.37,1.63c0,0.95-0.23,1.68-0.7,2.18
		c-0.47,0.51-1.08,0.76-1.84,0.76c-0.56,0-0.94-0.02-1.14-0.06C223.38,92.54,223.37,92.46,223.37,92.43z"/>
	<path class="st0" d="M236.45,85.47l1.66,4c-0.47,0.04-1,0.05-1.6,0.05c-0.61,0-1.16-0.02-1.65-0.05L236.45,85.47z M233.2,93.66
		l1.79,0.05v-0.65c-0.62-0.02-0.99-0.07-1.11-0.14c-0.08-0.05-0.12-0.14-0.12-0.26c0-0.18,0.13-0.62,0.39-1.33l0.34-0.93h4.02
		l0.67,1.7c0.12,0.29,0.18,0.51,0.18,0.64c0,0.1-0.04,0.17-0.12,0.22c-0.08,0.04-0.43,0.08-1.06,0.1v0.65l2.73-0.05l2.16,0.05v-0.65
		c-0.15-0.01-0.27-0.03-0.34-0.04c-0.24-0.01-0.39-0.03-0.45-0.05c-0.06-0.02-0.11-0.05-0.16-0.09c-0.05-0.04-0.1-0.11-0.15-0.2
		l-0.31-0.72l-0.48-1.06l-3.47-8.12h-1.11l-0.69,1.76l-2.03,5c-0.39,0.95-0.64,1.58-0.78,1.9c-0.29,0.69-0.47,1.08-0.53,1.19
		c-0.06,0.1-0.12,0.18-0.17,0.23c-0.06,0.05-0.13,0.08-0.21,0.11c-0.08,0.02-0.33,0.05-0.75,0.08v0.65L233.2,93.66z"/>
	<path class="st0" d="M358.17,85.47l1.65,4c-0.47,0.04-1,0.05-1.59,0.05c-0.62,0-1.17-0.02-1.65-0.05L358.17,85.47z M354.93,93.66
		l1.79,0.05v-0.65c-0.62-0.02-0.99-0.07-1.11-0.14c-0.08-0.05-0.12-0.14-0.12-0.26c0-0.18,0.13-0.62,0.38-1.33l0.34-0.93h4.02
		l0.67,1.7c0.12,0.29,0.18,0.51,0.18,0.64c0,0.1-0.04,0.17-0.12,0.22c-0.08,0.04-0.43,0.08-1.06,0.1v0.65l2.73-0.05l2.16,0.05v-0.65
		c-0.15-0.01-0.27-0.03-0.34-0.04c-0.24-0.01-0.4-0.03-0.45-0.05c-0.06-0.02-0.11-0.05-0.16-0.09c-0.05-0.04-0.09-0.11-0.15-0.2
		l-0.31-0.72l-0.48-1.06l-3.47-8.12h-1.12l-0.69,1.76l-2.02,5c-0.39,0.95-0.64,1.58-0.78,1.9c-0.29,0.69-0.47,1.08-0.53,1.19
		c-0.06,0.1-0.12,0.18-0.18,0.23c-0.06,0.05-0.12,0.08-0.21,0.11c-0.08,0.02-0.33,0.05-0.75,0.08v0.65L354.93,93.66z"/>
	<path class="st0" d="M393.93,85.47l1.66,4c-0.47,0.04-1,0.05-1.59,0.05c-0.62,0-1.16-0.02-1.65-0.05L393.93,85.47z M390.69,93.66
		l1.79,0.05v-0.65c-0.61-0.02-0.99-0.07-1.11-0.14c-0.08-0.05-0.12-0.14-0.12-0.26c0-0.18,0.13-0.62,0.39-1.33l0.34-0.93h4.02
		l0.67,1.7c0.12,0.29,0.18,0.51,0.18,0.64c0,0.1-0.04,0.17-0.12,0.22c-0.08,0.04-0.43,0.08-1.06,0.1v0.65l2.73-0.05l2.16,0.05v-0.65
		c-0.15-0.01-0.26-0.03-0.34-0.04c-0.24-0.01-0.39-0.03-0.45-0.05c-0.06-0.02-0.11-0.05-0.16-0.09c-0.05-0.04-0.1-0.11-0.15-0.2
		l-0.31-0.72l-0.48-1.06l-3.47-8.12h-1.11l-0.69,1.76l-2.03,5c-0.39,0.95-0.64,1.58-0.78,1.9c-0.29,0.69-0.47,1.08-0.53,1.19
		c-0.06,0.1-0.12,0.18-0.17,0.23c-0.06,0.05-0.13,0.08-0.21,0.11c-0.08,0.02-0.33,0.05-0.75,0.08v0.65L390.69,93.66z"/>
	<path class="st0" d="M244.37,93.72v-0.42c0.32-0.15,0.58-0.29,0.78-0.45c0.03-0.22,0.05-0.57,0.07-1.06
		c0.04-0.89,0.06-1.54,0.06-1.95v-3.5c0-0.14-0.02-0.64-0.05-1.52c-0.02-0.59-0.05-0.95-0.11-1.07c-0.02-0.05-0.06-0.09-0.11-0.12
		c-0.14-0.06-0.51-0.11-1.1-0.14v-0.6l1.81-0.02c0.36,0,0.7,0,1.03,0c0.71,0,1.51-0.01,2.38-0.02l1.58-0.04
		c0.19,0,0.57,0.01,1.14,0.03c0.05,0,0.14,0.02,0.26,0.06l0.05,0.1l-0.16,1.11c0,0.08-0.03,0.45-0.08,1.12h-0.6
		c-0.01-0.6-0.03-0.96-0.07-1.1c-0.02-0.07-0.05-0.12-0.09-0.15c-0.07-0.05-0.27-0.09-0.62-0.12c-0.52-0.05-1.02-0.08-1.51-0.08
		c-0.46,0-0.93,0.02-1.41,0.05c-0.07,0.59-0.1,1.33-0.1,2.23v1.6c0.35,0.03,0.72,0.05,1.1,0.05c0.12,0,0.55-0.01,1.29-0.03
		c0.28-0.01,0.44-0.02,0.49-0.06c0.05-0.03,0.09-0.08,0.11-0.16c0.06-0.2,0.1-0.53,0.11-0.99h0.62l-0.05,1.71l0.05,1.7h-0.62
		c0.01-0.6-0.03-0.98-0.12-1.12c-0.06-0.1-0.18-0.17-0.34-0.19c-0.36-0.06-0.82-0.08-1.39-0.08c-0.51,0-0.93,0.02-1.26,0.05v3.26
		c0,0.36,0.02,0.68,0.05,0.94c0.41,0.03,0.91,0.05,1.48,0.05c0.55,0,1.07-0.02,1.53-0.06c0.47-0.04,0.76-0.09,0.87-0.16
		c0.04-0.02,0.07-0.07,0.1-0.14c0.09-0.25,0.19-0.72,0.29-1.41h0.65c-0.12,1.03-0.18,1.88-0.18,2.54l-0.11,0.1
		c-0.33,0.03-0.81,0.05-1.42,0.05l-1.25-0.02c-1.23-0.02-2.09-0.03-2.55-0.03C246.85,93.68,245.98,93.69,244.37,93.72z"/>
	<path class="st0" d="M265.26,93.04v0.67c-0.75-0.03-1.4-0.05-1.95-0.05c-0.42,0-0.83,0.02-1.22,0.05
		c-0.13-0.26-0.33-0.56-0.61-0.88l-1.52-1.74c-1.15-1.35-1.76-2.06-1.83-2.13c-0.19-0.21-0.34-0.35-0.45-0.4
		c-0.07-0.04-0.14-0.06-0.19-0.06c-0.04,0-0.08,0.01-0.11,0.03c-0.03,0.01-0.04,0.03-0.05,0.05c-0.01,0.02-0.01,0.08-0.01,0.18v1.75
		l0.05,1.54c0.01,0.41,0.04,0.66,0.1,0.76c0.04,0.05,0.11,0.1,0.21,0.14c0.1,0.04,0.44,0.07,1.01,0.08v0.67
		c-0.85-0.03-1.75-0.05-2.69-0.05c-0.84,0-1.59,0.02-2.25,0.05v-0.67c0.54-0.03,0.89-0.06,1.05-0.11c0.06-0.02,0.11-0.05,0.15-0.1
		c0.04-0.05,0.07-0.12,0.09-0.21c0.02-0.09,0.04-0.3,0.06-0.62c0.04-0.77,0.05-1.32,0.05-1.67v-2.83l-0.05-2.41
		c-0.01-0.59-0.03-0.98-0.07-1.18c-0.03-0.11-0.06-0.19-0.09-0.22c-0.03-0.04-0.08-0.07-0.16-0.09c-0.11-0.03-0.46-0.06-1.03-0.09
		v-0.67c0.66,0.04,1.42,0.05,2.26,0.05c0.94,0,1.84-0.02,2.69-0.05v0.67c-0.61,0.02-0.98,0.06-1.11,0.13
		c-0.08,0.04-0.13,0.14-0.16,0.3c-0.06,0.34-0.1,0.98-0.1,1.93v2.15l0.13,0.05c0.49-0.39,1.15-1.02,2.01-1.9l1.1-1.13
		c0.36-0.37,0.61-0.63,0.76-0.8l0.68-0.8c0.01-0.11,0-0.31-0.02-0.6c0.52,0.02,0.88,0.03,1.06,0.03l1.83-0.03v0.67
		c-0.48,0.01-0.83,0.05-1.05,0.11c-0.22,0.06-0.49,0.22-0.81,0.47c-0.32,0.25-0.98,0.82-1.98,1.7l-1.47,1.47
		c0.25,0.31,0.62,0.75,1.11,1.33l1.71,2c0.79,0.92,1.32,1.53,1.6,1.83c0.28,0.3,0.49,0.47,0.61,0.53
		C264.73,93.02,264.95,93.04,265.26,93.04z"/>
	<path class="st0" d="M265.55,95.59l0.18-0.1c0.25,0.22,0.46,0.37,0.62,0.45c0.16,0.08,0.33,0.11,0.5,0.11
		c0.2,0,0.36-0.04,0.47-0.13c0.11-0.09,0.19-0.21,0.24-0.38c0.05-0.17,0.08-0.53,0.09-1.08c0.02-1.1,0.03-1.7,0.03-1.82v-6.1
		c0-0.67-0.01-1.28-0.03-1.81c-0.01-0.54-0.05-0.85-0.09-0.96c-0.02-0.05-0.05-0.09-0.1-0.12c-0.06-0.05-0.17-0.08-0.3-0.09
		l-1.06-0.04v-0.67c1,0.04,2.01,0.05,3.03,0.05c0.85,0,1.59-0.02,2.2-0.05v0.67c-0.53,0.02-0.85,0.03-0.95,0.05
		c-0.14,0.03-0.23,0.08-0.3,0.15c-0.07,0.07-0.11,0.21-0.12,0.4c-0.03,0.42-0.05,1.02-0.05,1.78v2.83l0.01,3.32
		c0,0.84-0.07,1.51-0.23,2.01c-0.15,0.5-0.41,0.96-0.76,1.41c-0.24,0.3-0.54,0.59-0.89,0.85c-0.35,0.27-0.68,0.47-1.01,0.61
		c-0.33,0.14-0.64,0.2-0.92,0.2c-0.2,0-0.42-0.04-0.63-0.11C265.53,96.64,265.55,96.17,265.55,95.59z"/>
	<path class="st0" d="M272.67,93.72v-0.42c0.32-0.15,0.58-0.29,0.78-0.45c0.03-0.22,0.05-0.57,0.07-1.06
		c0.04-0.89,0.06-1.54,0.06-1.95v-3.5c0-0.14-0.02-0.64-0.05-1.52c-0.01-0.59-0.05-0.95-0.11-1.07c-0.03-0.05-0.07-0.09-0.11-0.12
		c-0.14-0.06-0.51-0.11-1.1-0.14v-0.6l1.81-0.02c0.36,0,0.7,0,1.03,0c0.71,0,1.5-0.01,2.38-0.02l1.58-0.04
		c0.18,0,0.56,0.01,1.14,0.03c0.05,0,0.13,0.02,0.26,0.06l0.05,0.1l-0.15,1.11c-0.01,0.08-0.03,0.45-0.08,1.12h-0.6
		c-0.01-0.6-0.03-0.96-0.07-1.1c-0.02-0.07-0.05-0.12-0.09-0.15c-0.07-0.05-0.27-0.09-0.62-0.12c-0.51-0.05-1.02-0.08-1.51-0.08
		c-0.46,0-0.93,0.02-1.41,0.05c-0.07,0.59-0.1,1.33-0.1,2.23v1.6c0.35,0.03,0.72,0.05,1.1,0.05c0.12,0,0.55-0.01,1.29-0.03
		c0.28-0.01,0.45-0.02,0.5-0.06c0.05-0.03,0.08-0.08,0.11-0.16c0.06-0.2,0.1-0.53,0.11-0.99h0.62l-0.05,1.71l0.05,1.7h-0.62
		c0.01-0.6-0.03-0.98-0.12-1.12c-0.06-0.1-0.18-0.17-0.34-0.19c-0.36-0.06-0.83-0.08-1.39-0.08c-0.51,0-0.93,0.02-1.26,0.05v3.26
		c0,0.36,0.01,0.68,0.05,0.94c0.42,0.03,0.91,0.05,1.48,0.05c0.55,0,1.07-0.02,1.53-0.06c0.47-0.04,0.76-0.09,0.87-0.16
		c0.04-0.02,0.07-0.07,0.1-0.14c0.09-0.25,0.19-0.72,0.29-1.41h0.65c-0.12,1.03-0.18,1.88-0.18,2.54l-0.11,0.1
		c-0.33,0.03-0.8,0.05-1.42,0.05l-1.25-0.02c-1.24-0.02-2.09-0.03-2.55-0.03C275.14,93.68,274.28,93.69,272.67,93.72z"/>
	<path class="st0" d="M297.34,91.83l-0.42,0.91c-0.75,0.4-1.43,0.68-2.03,0.83c-0.6,0.15-1.35,0.22-2.25,0.22
		c-1.27,0-2.41-0.2-3.39-0.61c-0.77-0.33-1.43-0.76-1.97-1.3c-0.54-0.54-0.95-1.12-1.24-1.75c-0.44-0.95-0.66-1.98-0.66-3.09
		c0-1.9,0.65-3.46,1.95-4.66c1.3-1.21,3.13-1.81,5.5-1.81c0.82,0,1.54,0.06,2.2,0.18c0.65,0.12,1.4,0.33,2.26,0.63l0.05,0.12
		c-0.1,0.28-0.17,0.63-0.23,1.05c-0.09,0.67-0.15,1.29-0.17,1.86h-0.76c-0.01-0.66-0.04-1.18-0.07-1.58
		c-0.41-0.42-0.85-0.73-1.36-0.94c-0.5-0.21-1.14-0.31-1.92-0.31c-1.41,0-2.54,0.45-3.38,1.35c-0.85,0.9-1.27,2.16-1.27,3.77
		c0,0.98,0.14,1.83,0.43,2.56c0.28,0.73,0.67,1.33,1.14,1.81c0.48,0.48,0.95,0.83,1.44,1.04c0.66,0.29,1.45,0.44,2.39,0.44
		c0.61,0,1.2-0.07,1.74-0.21c0.55-0.14,1.15-0.38,1.79-0.73L297.34,91.83z"/>
	<path class="st0" d="M298.33,83.53v-0.67l2.38,0.06l0.99-0.02l0.99-0.03l0.27-0.01v0.67c-0.53,0-0.88,0.05-1.01,0.14
		c-0.07,0.04-0.13,0.13-0.15,0.26c-0.08,0.31-0.12,1-0.12,2.06v1.75l0,0.88c0,0.92,0.01,1.49,0.02,1.7
		c0.05,0.47,0.16,0.85,0.35,1.14c0.19,0.29,0.47,0.52,0.86,0.7c0.39,0.18,0.87,0.27,1.46,0.27c0.68,0,1.22-0.12,1.63-0.35
		c0.41-0.24,0.69-0.55,0.87-0.93c0.17-0.38,0.26-1.11,0.26-2.18v-1.54c0-1.32-0.01-2.13-0.03-2.42c-0.02-0.64-0.05-1.02-0.1-1.15
		c-0.03-0.08-0.09-0.14-0.17-0.18c-0.16-0.08-0.5-0.14-1.04-0.15v-0.67c0.88,0.04,1.4,0.06,1.56,0.06c0.05,0,0.11,0,0.2-0.01
		l1.61-0.05v0.67c-0.45,0-0.74,0.04-0.85,0.11c-0.06,0.04-0.11,0.12-0.15,0.23c-0.03,0.11-0.07,0.62-0.11,1.53
		c-0.04,0.9-0.06,1.62-0.06,2.14v1.77c0,0.45-0.03,0.92-0.09,1.4c-0.06,0.48-0.19,0.89-0.38,1.24c-0.19,0.34-0.46,0.65-0.81,0.92
		c-0.35,0.28-0.76,0.49-1.24,0.63c-0.48,0.14-1.03,0.21-1.67,0.21c-0.73,0-1.42-0.1-2.06-0.31c-0.46-0.15-0.84-0.35-1.14-0.61
		c-0.3-0.25-0.53-0.54-0.68-0.85c-0.15-0.31-0.25-0.62-0.28-0.91c-0.03-0.18-0.04-0.67-0.04-1.46l0.01-1.45v-1.91
		c0-0.7-0.01-1.34-0.03-1.9c-0.01-0.22-0.04-0.38-0.09-0.48c-0.02-0.05-0.09-0.12-0.19-0.2L298.33,83.53z"/>
	<path class="st0" d="M329.95,83.53v-0.67l2.38,0.06l0.99-0.02l0.99-0.03l0.27-0.01v0.67c-0.53,0-0.88,0.05-1.01,0.14
		c-0.07,0.04-0.12,0.13-0.15,0.26c-0.08,0.31-0.11,1-0.11,2.06v1.75l0,0.88c0,0.92,0.01,1.49,0.03,1.7
		c0.05,0.47,0.16,0.85,0.35,1.14c0.19,0.29,0.47,0.52,0.86,0.7c0.38,0.18,0.87,0.27,1.46,0.27c0.68,0,1.22-0.12,1.63-0.35
		c0.41-0.24,0.69-0.55,0.87-0.93c0.17-0.38,0.26-1.11,0.26-2.18v-1.54c0-1.32-0.01-2.13-0.03-2.42c-0.02-0.64-0.05-1.02-0.1-1.15
		c-0.03-0.08-0.09-0.14-0.17-0.18c-0.16-0.08-0.51-0.14-1.04-0.15v-0.67c0.88,0.04,1.4,0.06,1.56,0.06c0.05,0,0.11,0,0.2-0.01
		l1.62-0.05v0.67c-0.45,0-0.74,0.04-0.85,0.11c-0.06,0.04-0.11,0.12-0.14,0.23c-0.04,0.11-0.08,0.62-0.11,1.53
		c-0.04,0.9-0.06,1.62-0.06,2.14v1.77c0,0.45-0.03,0.92-0.09,1.4c-0.07,0.48-0.19,0.89-0.38,1.24c-0.19,0.34-0.46,0.65-0.81,0.92
		c-0.35,0.28-0.76,0.49-1.24,0.63c-0.48,0.14-1.03,0.21-1.66,0.21c-0.74,0-1.42-0.1-2.07-0.31c-0.46-0.15-0.84-0.35-1.14-0.61
		c-0.3-0.25-0.52-0.54-0.68-0.85c-0.15-0.31-0.25-0.62-0.28-0.91c-0.03-0.18-0.04-0.67-0.04-1.46l0.01-1.45v-1.91
		c0-0.7-0.01-1.34-0.03-1.9c-0.02-0.22-0.05-0.38-0.09-0.48c-0.02-0.05-0.09-0.12-0.19-0.2L329.95,83.53z"/>
	<path class="st0" d="M310.51,93.74v-0.41c0.14-0.06,0.34-0.16,0.6-0.31c0.12-0.06,0.19-0.11,0.22-0.16
		c0.02-0.03,0.03-0.05,0.04-0.09c0.03-0.13,0.05-0.59,0.06-1.39c0.01-0.8,0.02-1.76,0.02-2.88c0-1.65-0.01-2.66-0.01-3.05
		c-0.02-0.98-0.05-1.54-0.09-1.68c-0.02-0.06-0.06-0.11-0.12-0.14c-0.12-0.08-0.53-0.13-1.22-0.16V82.8
		c0.67,0.04,1.42,0.06,2.28,0.06c0.95,0,1.86-0.02,2.71-0.06v0.69c-0.61,0.03-0.98,0.07-1.12,0.14c-0.06,0.03-0.1,0.08-0.13,0.15
		c-0.03,0.07-0.05,0.39-0.06,0.96c-0.01,0.57-0.02,1.29-0.02,2.17c0,0.09,0,0.85,0.01,2.26c0,0.74,0.01,1.48,0.01,2.21
		c0,0.73,0.01,1.18,0.02,1.33c0.71,0.04,1.19,0.06,1.45,0.06c0.78,0,1.45-0.05,2.03-0.16c0.21-0.03,0.34-0.06,0.38-0.1
		c0.04-0.03,0.08-0.13,0.13-0.28c0.1-0.39,0.2-0.83,0.3-1.33h0.69c-0.02,0.15-0.02,0.23-0.02,0.26l-0.19,1.58
		c-0.04,0.49-0.06,0.79-0.07,0.89c-0.15,0.04-0.3,0.07-0.45,0.09c-0.32,0.03-0.81,0.04-1.48,0.04c-0.09,0-0.71-0.01-1.84-0.03
		c-0.86-0.02-1.46-0.03-1.8-0.03C312.32,93.68,311.55,93.7,310.51,93.74z"/>
	<path class="st0" d="M365.56,93.74v-0.41c0.14-0.06,0.34-0.16,0.6-0.31c0.12-0.06,0.19-0.11,0.23-0.16
		c0.02-0.03,0.03-0.05,0.04-0.09c0.03-0.13,0.05-0.59,0.06-1.39c0.01-0.8,0.01-1.76,0.01-2.88c0-1.65,0-2.66-0.01-3.05
		c-0.02-0.98-0.04-1.54-0.09-1.68c-0.02-0.06-0.06-0.11-0.12-0.14c-0.13-0.08-0.53-0.13-1.22-0.16V82.8
		c0.67,0.04,1.42,0.06,2.27,0.06c0.95,0,1.85-0.02,2.71-0.06v0.69c-0.61,0.03-0.98,0.07-1.12,0.14c-0.06,0.03-0.1,0.08-0.13,0.15
		c-0.03,0.07-0.05,0.39-0.06,0.96c-0.01,0.57-0.02,1.29-0.02,2.17c0,0.09,0.01,0.85,0.01,2.26c0,0.74,0.01,1.48,0.01,2.21
		c0,0.73,0.01,1.18,0.01,1.33c0.71,0.04,1.19,0.06,1.45,0.06c0.78,0,1.46-0.05,2.04-0.16c0.21-0.03,0.34-0.06,0.38-0.1
		c0.04-0.03,0.08-0.13,0.13-0.28c0.1-0.39,0.2-0.83,0.3-1.33h0.69c-0.02,0.15-0.03,0.23-0.03,0.26l-0.19,1.58
		c-0.04,0.49-0.07,0.79-0.07,0.89c-0.15,0.04-0.31,0.07-0.46,0.09c-0.32,0.03-0.81,0.04-1.47,0.04c-0.09,0-0.71-0.01-1.84-0.03
		c-0.86-0.02-1.46-0.03-1.8-0.03C367.38,93.68,366.6,93.7,365.56,93.74z"/>
	<path class="st0" d="M320.81,93.83v-0.67c0.69-0.02,1.1-0.06,1.23-0.13c0.12-0.06,0.21-0.17,0.26-0.32
		c0.06-0.23,0.09-0.91,0.06-2.06v-4.75c0-1.29-0.02-2.02-0.04-2.17h-1.19c-0.59,0-1.12,0.02-1.58,0.06
		c-0.18,0.02-0.29,0.04-0.32,0.06c-0.04,0.03-0.07,0.12-0.1,0.28c-0.07,0.37-0.11,0.79-0.13,1.25h-0.74
		c-0.02-1.08-0.04-1.69-0.04-1.83c-0.02-0.23-0.05-0.48-0.09-0.75l0.07-0.08c0.26,0.02,0.54,0.04,0.84,0.05
		c0.48,0.01,1.41,0.02,2.79,0.02h3.41c1.41,0,2.37-0.01,2.84-0.02c0.26-0.01,0.52-0.02,0.78-0.05l0.09,0.08
		c-0.05,0.32-0.09,0.61-0.1,0.85c-0.01,0.04-0.02,0.62-0.04,1.73h-0.74c-0.01-0.42-0.05-0.81-0.1-1.19
		c-0.04-0.19-0.07-0.3-0.11-0.34c-0.04-0.03-0.12-0.04-0.27-0.06c-0.45-0.04-1-0.06-1.64-0.06h-1.19c-0.02,0.19-0.03,0.91-0.03,2.17
		v4.75c0,1.14,0.04,1.83,0.1,2.06c0.04,0.14,0.12,0.24,0.25,0.3c0.13,0.07,0.53,0.11,1.2,0.13v0.67c-1.08-0.04-2-0.06-2.74-0.06
		C322.77,93.77,321.85,93.79,320.81,93.83z"/>
	<path class="st0" d="M341.68,83.57v-0.65c0.12,0,0.53,0.01,1.24,0.04c0.35,0.01,0.84,0.02,1.48,0.02c0.54,0,1.01-0.01,1.4-0.04
		c0.64-0.03,1.18-0.05,1.6-0.05c0.82,0,1.43,0.06,1.83,0.17c0.41,0.12,0.75,0.36,1.04,0.73c0.29,0.37,0.43,0.82,0.43,1.35
		c0,0.63-0.2,1.2-0.59,1.71c-0.39,0.51-1,0.93-1.82,1.22c0.13,0.23,0.28,0.47,0.45,0.71c0.16,0.24,0.26,0.38,0.29,0.44
		c0.03,0.05,0.06,0.1,0.09,0.15l1.21,1.8c0.32,0.48,0.5,0.74,0.52,0.77c0.39,0.52,0.63,0.82,0.72,0.91
		c0.09,0.09,0.17,0.15,0.26,0.19c0.08,0.04,0.25,0.06,0.49,0.06v0.69c-0.8-0.04-1.38-0.07-1.73-0.07c-0.42,0-0.83,0.02-1.24,0.07
		c-0.02-0.11-0.08-0.26-0.19-0.44l-1.67-2.74c-0.48-0.78-0.89-1.41-1.22-1.86c-0.17-0.23-0.33-0.4-0.48-0.51l0.09-0.26
		c0.63,0.02,1.1-0.04,1.42-0.19c0.32-0.15,0.59-0.41,0.81-0.79c0.22-0.38,0.33-0.81,0.33-1.28c0-0.48-0.11-0.87-0.34-1.19
		c-0.23-0.32-0.51-0.54-0.85-0.66c-0.22-0.08-0.61-0.12-1.17-0.12c-0.25,0-0.5,0.02-0.74,0.06c-0.02,0.19-0.03,0.61-0.05,1.27
		c-0.03,1.46-0.05,2.44-0.05,2.93c0,0.78,0,1.6,0.01,2.47c0.01,1.07,0.02,1.67,0.02,1.81c0.02,0.29,0.04,0.48,0.09,0.56
		c0.02,0.04,0.05,0.08,0.1,0.11c0.05,0.03,0.12,0.06,0.23,0.08c0.1,0.02,0.4,0.04,0.9,0.05v0.69c-0.88-0.04-1.77-0.07-2.67-0.07
		c-0.8,0-1.54,0.02-2.21,0.07v-0.69c0.59-0.02,0.94-0.05,1.05-0.08c0.06-0.02,0.11-0.04,0.14-0.08c0.03-0.04,0.05-0.11,0.07-0.22
		c0.04-0.2,0.06-0.51,0.08-0.92l0.03-2.27v-2.88l-0.03-1.64c-0.01-0.65-0.04-1.04-0.09-1.17c-0.02-0.06-0.06-0.1-0.11-0.13
		C342.69,83.66,342.31,83.61,341.68,83.57z"/>
	<path class="st0" d="M377.15,93.73v-0.49c0.19-0.07,0.47-0.19,0.82-0.37c0.16-0.07,0.26-0.14,0.3-0.19
		c0.03-0.03,0.05-0.07,0.06-0.1c0.04-0.16,0.06-0.72,0.08-1.69c0.02-0.97,0.02-2.13,0.02-3.49c0-1.99-0.01-3.22-0.01-3.69
		c-0.02-1.18-0.06-1.86-0.13-2.03c-0.03-0.08-0.08-0.13-0.16-0.17c-0.17-0.09-0.72-0.16-1.66-0.19v-0.83
		c0.9,0.05,1.93,0.08,3.09,0.08c1.3,0,2.52-0.03,3.68-0.08v0.83c-0.83,0.03-1.33,0.09-1.51,0.17c-0.08,0.04-0.14,0.1-0.18,0.19
		c-0.04,0.08-0.07,0.47-0.08,1.17c-0.02,0.69-0.02,1.57-0.02,2.62c0,0.11,0,1.03,0.01,2.73c0.01,0.9,0.01,1.79,0.02,2.68
		c0.01,0.88,0.01,1.42,0.02,1.61c0.96,0.05,1.62,0.08,1.96,0.08c1.06,0,1.98-0.06,2.77-0.19c0.29-0.04,0.46-0.08,0.51-0.12
		c0.06-0.04,0.12-0.16,0.18-0.34c0.14-0.47,0.27-1.01,0.41-1.62h0.94c-0.02,0.18-0.03,0.28-0.03,0.31l-0.26,1.91
		c-0.05,0.6-0.09,0.96-0.09,1.08c-0.2,0.05-0.41,0.08-0.62,0.1c-0.43,0.03-1.1,0.05-2.01,0.05c-0.13,0-0.96-0.01-2.49-0.04
		c-1.17-0.02-1.99-0.04-2.45-0.04C379.62,93.66,378.57,93.69,377.15,93.73z"/>
	<path class="st0" d="M401.28,93.02c0.59-0.03,0.93-0.06,1.02-0.08c0.05-0.02,0.1-0.05,0.14-0.1c0.04-0.04,0.07-0.14,0.1-0.28
		c0.03-0.19,0.07-0.66,0.12-1.4c0.02-0.42,0.04-0.97,0.04-1.65v-2.44l-0.03-2.22c0-0.37-0.02-0.61-0.05-0.72
		c-0.03-0.11-0.06-0.2-0.11-0.25c-0.05-0.05-0.13-0.1-0.24-0.13c-0.12-0.03-0.44-0.06-0.98-0.1v-0.67c0.65,0.04,1.13,0.06,1.43,0.06
		l1.11-0.03l0.7-0.03c1.06,1.37,2.33,2.95,3.83,4.75c1.08,1.29,1.97,2.3,2.68,3.03l0.03-1.76c0-2.73-0.03-4.34-0.09-4.83
		c-0.02-0.19-0.07-0.31-0.14-0.36c-0.11-0.09-0.51-0.14-1.19-0.15v-0.67c0.62,0.04,1.19,0.06,1.7,0.06c0.49,0,1.12-0.02,1.89-0.06
		v0.67c-0.62,0.02-1,0.06-1.12,0.14c-0.04,0.02-0.07,0.06-0.08,0.11c-0.08,0.26-0.12,0.84-0.13,1.75c-0.01,0.91-0.01,1.58-0.01,2.01
		c0,3.39,0.03,5.45,0.09,6.17l-0.1,0.07c-0.42-0.08-0.85-0.15-1.29-0.21c-1.65-1.84-3.99-4.61-7.02-8.3v3.8
		c0,0.79,0.02,1.61,0.06,2.47c0.02,0.59,0.05,0.95,0.09,1.08c0.02,0.06,0.05,0.11,0.1,0.15c0.05,0.04,0.13,0.07,0.26,0.08
		c0.33,0.04,0.57,0.06,0.72,0.06c0.03,0,0.08,0,0.15-0.01v0.64c-0.97-0.02-1.52-0.03-1.66-0.03c-0.5,0-1.18,0.02-2.03,0.06V93.02z"
		/>
	<path class="st0" d="M417.74,89.75v-1.78c0-2.03,0.01-3.42,0.03-4.15c0.48-0.08,0.92-0.12,1.32-0.12c1.07,0,1.86,0.09,2.39,0.28
		c0.52,0.18,0.96,0.48,1.3,0.9c0.34,0.41,0.59,0.9,0.74,1.45c0.15,0.55,0.23,1.12,0.23,1.72c0,0.65-0.07,1.25-0.23,1.82
		c-0.15,0.56-0.36,1.04-0.64,1.45c-0.27,0.41-0.55,0.71-0.85,0.92c-0.3,0.21-0.64,0.37-1.04,0.48c-0.53,0.15-1.15,0.22-1.84,0.22
		c-0.44,0-0.9-0.04-1.38-0.13C417.75,92.31,417.74,91.29,417.74,89.75z M417.03,93.74l2.32,0.06c1.05,0,1.95-0.12,2.69-0.35
		c0.74-0.23,1.43-0.61,2.07-1.14c0.64-0.53,1.14-1.18,1.5-1.97c0.36-0.78,0.55-1.68,0.55-2.67c0-0.79-0.12-1.51-0.37-2.17
		c-0.15-0.39-0.36-0.76-0.65-1.1c-0.29-0.34-0.63-0.64-1.04-0.88c-0.41-0.25-0.9-0.43-1.45-0.54c-0.55-0.11-1.29-0.17-2.21-0.17
		c-0.4,0-0.93,0.01-1.6,0.04c-0.92,0.04-1.55,0.06-1.88,0.06l-2.83-0.06v0.63c0.57,0.07,0.9,0.12,0.99,0.14
		c0.09,0.02,0.16,0.05,0.2,0.09c0.02,0.03,0.05,0.06,0.06,0.11c0.05,0.2,0.08,0.67,0.1,1.41c0.03,1.33,0.03,2.33,0.03,3.02v1.28
		c0,1.57-0.03,2.7-0.09,3.4c-0.17,0.12-0.34,0.24-0.54,0.36c-0.1,0.06-0.17,0.1-0.21,0.13v0.39L417.03,93.74z"/>
</g>
</svg>
